<?xml version="1.0" encoding="UTF-8"?>
<svg version="1.1" xmlns="http://www.w3.org/2000/svg" width="3675" height="2723">
<path d="M0 0 C5.03410636 3.71564993 8.67791173 7.93472556 10.625 13.9375 C11.31569755 20.09995732 11.35374673 25.76536744 7.625 30.9375 C3.33268701 35.33579603 -0.78059817 38.534634 -7.05859375 39.23828125 C-12.5601601 39.26169217 -16.76107262 39.26381974 -21.375 35.9375 C-26.55830219 30.7666877 -29.65885582 26.56727434 -29.6875 19.0625 C-29.56200053 13.31741313 -28.9512588 9.5137588 -24.7578125 5.3203125 C-17.31667316 -1.35435755 -9.80332711 -3.08623261 0 0 Z " fill="#000000" transform="translate(2071.375,5.0625)"/>
<path d="M0 0 C5.78092001 2.48900723 9.38849163 5.67187204 12.0234375 11.40234375 C13.74952567 16.97965014 13.45554274 22.55036676 11.6875 28.0625 C8.01758293 33.15303014 3.76658305 36.7984327 -2.25 38.75 C-8.41245732 39.44069755 -14.07786744 39.47874673 -19.25 35.75 C-24.43330219 30.5791877 -27.53385582 26.37977434 -27.5625 18.875 C-27.43700053 13.12991313 -26.8262588 9.3262588 -22.6328125 5.1328125 C-15.61844638 -1.1590438 -9.1762352 -3.1803997 0 0 Z " fill="#000000" transform="translate(2069.25,2621.25)"/>
<path d="M0 0 C4.8033824 3.82087237 8.28265764 8.89520762 9.3515625 15.01171875 C9.62922681 21.4358613 7.75017002 26.87141484 3.6875 31.8125 C-2.12561022 36.54410134 -6.61487237 37.5537814 -14.0234375 37.3515625 C-19.70467245 36.6805505 -23.46636852 34.61434893 -27.375 30.5 C-31.39753049 24.31149156 -31.73654993 19.34661343 -31 12 C-29.42233308 5.98888934 -25.9493833 2.67660873 -21 -0.87109375 C-14.25589982 -4.67782217 -6.61217413 -3.45953414 0 0 Z " fill="#000000" transform="translate(3065,2649)"/>
<path d="M0 0 C4.94603876 2.65345427 8.01871323 6.76140672 9.8203125 11.9765625 C10.55803607 18.35517243 10.64492325 24.58400522 7.26171875 30.21875 C3.60244018 34.68128484 -0.41099238 37.50359224 -6.15234375 38.484375 C-12.53102089 38.72629702 -18.10223284 38.04757292 -23.1796875 33.9765625 C-27.65846639 29.19397148 -29.92611494 25.2730058 -30.4296875 18.7265625 C-30.00077623 12.29289343 -27.93525914 6.4818409 -23.1796875 1.9765625 C-15.47372728 -2.66833447 -8.39457596 -3.52242991 0 0 Z " fill="#000000" transform="translate(1678.1796875,32.0234375)"/>
<path d="M0 0 C4.9863446 4.17710491 8.134912 8.99468077 8.875 15.44921875 C9.07450558 21.28738198 8.16077131 25.6325372 4.63671875 30.37109375 C0.12791997 35.1500049 -4.34321126 37.26711846 -10.91015625 37.5390625 C-17.73459691 37.07178392 -22.55883 34.06381357 -27.36328125 29.37109375 C-31.32540336 23.76947284 -32.15071653 18.11420149 -31.36328125 11.37109375 C-29.52404352 5.48553303 -26.4448141 1.75878232 -21.36328125 -1.62890625 C-14.15796176 -4.61979358 -6.62612209 -4.21662315 0 0 Z " fill="#000000" transform="translate(2733.36328125,2638.62890625)"/>
<path d="M0 0 C5.34525874 3.96644642 7.48060987 7.7115208 9.0625 14.25 C9.56691487 20.76956218 7.271011 26.31693578 3.1875 31.3125 C0.084644 34.81252156 -2.40895692 36.23899359 -7.1171875 36.67578125 C-8.31601563 36.67964844 -9.51484375 36.68351562 -10.75 36.6875 C-11.94367188 36.70425781 -13.13734375 36.72101562 -14.3671875 36.73828125 C-20.67043722 36.08549481 -24.89903384 33.21063452 -28.875 28.375 C-32.27077534 22.50122643 -32.43109383 16.89780426 -30.875 10.375 C-28.48387113 4.01509022 -24.1159588 -0.0045206 -18.125 -3 C-11.43442535 -4.28664897 -5.84715049 -3.6026924 0 0 Z " fill="#000000" transform="translate(1744.875,2619.625)"/>
<path d="M0 0 C4.47814083 4.36618731 5.82379414 8.7798062 6.3125 14.9375 C6.132685 21.2190372 3.40485037 26.59514963 -1 31 C-6.63058569 34.9975852 -12.20163695 36.05006563 -19 35 C-25.19892378 33.14252107 -29.42861398 29.32618469 -33 24 C-35.03439059 17.89682823 -35.08046363 10.51916495 -32.5 4.5625 C-29.73663743 -0.17469298 -25.17266959 -3.05064906 -19.9765625 -4.60546875 C-12.09288745 -6.17908768 -6.655393 -4.29532456 0 0 Z " fill="#000000" transform="translate(1156,2652)"/>
<path d="M0 0 C4.91185683 3.40051626 7.27668684 6.25562281 9 12 C9.9680387 19.58296983 8.11076464 24.95111774 3.75 31.25 C-0.45747387 35.45747387 -4.54391648 37.13154732 -10.4375 37.375 C-15.87710933 37.14372409 -20.6300103 36.12826126 -24.76171875 32.41796875 C-29.55499989 27.09081126 -31.45690075 22.51690281 -31.2421875 15.3359375 C-30.64595353 9.5851647 -28.95685755 5.52272803 -24.625 1.625 C-16.83747465 -4.3454361 -8.65873299 -4.7377973 0 0 Z " fill="#000000" transform="translate(99,2639)"/>
<path d="M0 0 C4.77412097 4.09210369 8.06862367 8.09572337 8.91796875 14.4375 C9.3157199 21.31751989 7.69301974 26.66760795 3.625 32.25 C-0.82258248 36.54965845 -5.82091062 38.081276 -11.92578125 38.37109375 C-18.14082572 38.06381085 -21.9961606 36.01696348 -26.25 31.5 C-30.38643916 26.30584124 -31.62483614 21.78658885 -31.25 15.1875 C-30.44621942 9.08985419 -27.9238486 5.76442975 -23.5625 1.5 C-16.25118484 -3.66092835 -7.90721601 -4.10003793 0 0 Z " fill="#000000" transform="translate(2402.375,2628.75)"/>
<path d="M0 0 C4.43931282 3.15478943 6.48233436 6.97683432 7.6875 12.19921875 C8.7489978 19.5589368 6.72604413 25.04154844 2.6875 31.19921875 C-1.67868731 35.67735958 -6.0923062 37.02301289 -12.25 37.51171875 C-18.60992611 37.3296598 -23.7451648 34.51281311 -28.3125 30.19921875 C-32.25543663 24.56645214 -33.10220166 18.96173434 -32.3125 12.19921875 C-30.46884929 6.29953648 -27.36875567 2.6374726 -22.3125 -0.80078125 C-15.05736963 -4.26345711 -6.93475226 -3.98468628 0 0 Z " fill="#000000" transform="translate(2674.3125,62.80078125)"/>
<path d="M0 0 C4.91185683 3.40051626 7.27668684 6.25562281 9 12 C9.9680387 19.58296983 8.11076464 24.95111774 3.75 31.25 C-0.45747387 35.45747387 -4.54391648 37.13154732 -10.4375 37.375 C-15.87710933 37.14372409 -20.6300103 36.12826126 -24.76171875 32.41796875 C-29.55499989 27.09081126 -31.45690075 22.51690281 -31.2421875 15.3359375 C-30.64595353 9.5851647 -28.95685755 5.52272803 -24.625 1.625 C-16.83747465 -4.3454361 -8.65873299 -4.7377973 0 0 Z " fill="#000000" transform="translate(99,23)"/>
<path d="M0 0 C5.74597795 4.16865067 8.98895737 8.24109849 10.1875 15.3125 C10.53692471 22.63697956 7.97417952 27.860701 3.1875 33.3125 C-2.07722181 37.71767539 -6.86297478 37.98400771 -13.6484375 37.765625 C-19.60585317 36.91246424 -23.08805291 34.08232728 -27.1875 29.875 C-31.11388985 23.68338524 -31.34260647 18.34875605 -29.8125 11.3125 C-27.4431441 4.95329608 -23.04057949 0.92653974 -17.0625 -2.0625 C-11.20319592 -3.18928925 -5.35151016 -2.79260028 0 0 Z " fill="#000000" transform="translate(1743.8125,2.6875)"/>
<path d="M0 0 C4.90810504 3.34424804 8.27749546 9.01998639 10.125 14.5625 C10.60164274 21.71214112 9.59781039 26.69924587 4.75 32.3125 C-0.83263477 37.09761552 -5.47442771 38.90571495 -12.875 38.5625 C-19.6690614 36.98706547 -24.06939542 34.38983201 -27.875 28.5625 C-30.58027731 23.92488175 -30.60674187 18.77521789 -29.875 13.5625 C-28.21904174 8.59462523 -26.1492318 4.04646802 -21.75 1 C-15.31949044 -2.21525478 -6.67127594 -3.29076392 0 0 Z " fill="#000000" transform="translate(624.875,2659.4375)"/>
<path d="M0 0 C4.64117441 3.36485145 7.7048468 6.32377937 9.5 11.8125 C10.25124725 18.14568903 10.29695986 24.46599543 6.94140625 30.0546875 C3.28212768 34.51722234 -0.73130488 37.33952974 -6.47265625 38.3203125 C-12.85133339 38.56223452 -18.42254534 37.88351042 -23.5 33.8125 C-27.97877889 29.02990898 -30.24642744 25.1089433 -30.75 18.5625 C-30.31795293 12.08179392 -28.22675678 6.40795798 -23.5 1.8125 C-16.53225581 -2.48674642 -7.6638431 -2.60023248 0 0 Z " fill="#000000" transform="translate(1678.5,2648.1875)"/>
<path d="M0 0 C4.60494656 3.39482833 6.86972307 6.66657007 8.0625 12.25 C8.77026932 19.61352311 7.61428677 25.1311495 2.8125 31 C-2.56668967 35.40115519 -7.60631199 36.83670946 -14.4453125 36.59765625 C-19.90373697 35.83621459 -24.13312343 33.45127725 -27.8125 29.375 C-31.71494746 23.63610668 -32.8750352 18.09053463 -31.9375 11.25 C-29.94923501 5.15623648 -26.87897666 1.36622908 -21.19140625 -1.6875 C-13.77571743 -5.02978229 -6.84515079 -4.30044376 0 0 Z " fill="#000000" transform="translate(2206.9375,2661.75)"/>
<path d="M0 0 C5.47101008 4.79318582 7.7369107 9.68507479 8.3125 16.9375 C8.13044105 23.29742611 5.31359436 28.4326648 1 33 C-4.44393461 36.81075423 -9.39596668 37.63638867 -16 37 C-21.71608672 35.83323324 -25.26836072 33.42956581 -28.8125 28.81640625 C-32.20860114 23.62171207 -32.80123115 18.05032239 -32 12 C-30.09764895 5.38993212 -25.90937457 1.33556494 -20 -2 C-13.24634163 -4.15960006 -6.11614947 -3.58881498 0 0 Z " fill="#000000" transform="translate(1217,2684)"/>
<path d="M0 0 C4.74662676 4.84592858 6.74358052 8.97425008 7.3125 15.6875 C7.2188182 21.26677151 5.29087207 26.41413893 1.57421875 30.609375 C-3.49793992 35.06553507 -8.06408307 36.43952908 -14.6640625 36.2421875 C-20.4148353 35.64595353 -24.47727197 33.95685755 -28.375 29.625 C-32.70816746 23.97304244 -33.78777203 19.05358957 -33 12 C-31.0754043 6.22621291 -28.53291324 1.77303927 -23.5 -1.75 C-15.60394277 -5.69802862 -7.29247351 -4.84370934 0 0 Z " fill="#000000" transform="translate(2932,2680)"/>
<path d="M0 0 C5.77420012 4.98680919 8.6810532 9.77395484 9.25 17.3125 C8.78043118 24.23864008 5.79233308 29.09621732 1 34 C-4.42876911 37.97227008 -10.544645 37.73799722 -17 37 C-22.10675677 35.66670882 -25.05076482 33.39571038 -27.9375 29 C-30.83032677 23.97922947 -31.87697874 18.77426449 -31 13 C-28.91543479 7.23933431 -26.42742977 2.17703206 -21 -1 C-13.57771551 -4.29879311 -7.03028966 -3.84676227 0 0 Z " fill="#000000" transform="translate(2538,2650)"/>
<path d="M0 0 C5.47101008 4.79318582 7.7369107 9.68507479 8.3125 16.9375 C8.13044105 23.29742611 5.31359436 28.4326648 1 33 C-4.44393461 36.81075423 -9.39596668 37.63638867 -16 37 C-21.71608672 35.83323324 -25.26836072 33.42956581 -28.8125 28.81640625 C-32.20860114 23.62171207 -32.80123115 18.05032239 -32 12 C-30.09764895 5.38993212 -25.90937457 1.33556494 -20 -2 C-13.24634163 -4.15960006 -6.11614947 -3.58881498 0 0 Z " fill="#000000" transform="translate(1217,68)"/>
<path d="M0 0 C4.74662676 4.84592858 6.74358052 8.97425008 7.3125 15.6875 C7.2188182 21.26677151 5.29087207 26.41413893 1.57421875 30.609375 C-3.49793992 35.06553507 -8.06408307 36.43952908 -14.6640625 36.2421875 C-20.4148353 35.64595353 -24.47727197 33.95685755 -28.375 29.625 C-32.70816746 23.97304244 -33.78777203 19.05358957 -33 12 C-31.0754043 6.22621291 -28.53291324 1.77303927 -23.5 -1.75 C-15.60394277 -5.69802862 -7.29247351 -4.84370934 0 0 Z " fill="#000000" transform="translate(2932,64)"/>
<path d="M0 0 C4.47814083 4.36618731 5.82379414 8.7798062 6.3125 14.9375 C6.1433753 20.47633381 4.23949114 24.56479973 0.625 28.75 C-5.39481256 33.90983934 -10.08563597 35.53656705 -18 35 C-24.27885236 32.90704921 -28.94692255 29.80587252 -32.875 24.4375 C-34.98290288 17.99668564 -35.19665826 10.87867289 -32.5 4.5625 C-29.73663743 -0.17469298 -25.17266959 -3.05064906 -19.9765625 -4.60546875 C-12.09288745 -6.17908768 -6.655393 -4.29532456 0 0 Z " fill="#000000" transform="translate(1156,36)"/>
<path d="M0 0 C4.91185683 3.40051626 7.27668684 6.25562281 9 12 C9.9680387 19.58296983 8.11076464 24.95111774 3.75 31.25 C-0.45747387 35.45747387 -4.54391648 37.13154732 -10.4375 37.375 C-15.87710933 37.14372409 -20.6300103 36.12826126 -24.76171875 32.41796875 C-29.55262727 27.09344815 -31.46488859 22.51581227 -31.23828125 15.3359375 C-30.74696306 10.51940839 -29.72828881 6.72065839 -26.23046875 3.23828125 C-17.89073681 -3.34739617 -9.69003974 -5.10929368 0 0 Z " fill="#000000" transform="translate(2870,23)"/>
<path d="M0 0 C5.13983578 2.98752955 7.73166612 8.00749836 9.5625 13.5 C10.25722361 20.54973631 10.04305749 26.7560295 5.5625 32.5 C-0.12419757 37.68264938 -5.1202435 38.81700963 -12.71875 38.70703125 C-18.1797955 38.29117577 -21.15672122 36.00816646 -24.6875 32.0625 C-29.18828376 26.65430016 -29.89992951 22.53247682 -29.73828125 15.5390625 C-29.19220892 10.02160438 -27.52930826 6.56085127 -23.58984375 2.6796875 C-16.5722141 -2.79686558 -8.19691697 -3.4334256 0 0 Z " fill="#000000" transform="translate(686.4375,5.5)"/>
<path d="M0 0 C4.77547154 2.7398665 7.61298997 6.12364564 10 11.125 C11.19988003 16.79716012 11.43857403 22.07759708 9.625 27.625 C5.81177296 33.03732224 1.29559483 36.99831358 -5.3125 38.375 C-10.83620079 38.88645378 -15.53708054 38.21216097 -20.3125 35.375 C-24.45629285 31.54808543 -28.79095892 27.0393341 -29.61328125 21.26171875 C-29.64977643 14.41278944 -28.00585915 9.82096321 -24.0625 4.125 C-17.52764932 -2.40985068 -8.39642236 -3.78631121 0 0 Z " fill="#000000" transform="translate(1614.3125,2682.625)"/>
<path d="M0 0 C4.26065447 3.42977854 6.61245476 7.03756609 7.72265625 12.38671875 C7.90550585 18.43091388 6.94820824 23.63489509 3.42578125 28.625 C-1.12871008 33.33618255 -6.91054635 35.6391329 -13.40234375 35.94921875 C-19.766014 35.57958641 -24.82771965 33.27708986 -29.15234375 28.57421875 C-32.86913043 22.99903873 -33.77844617 18.11830753 -32.8125 11.58984375 C-31.27933606 5.27813233 -27.60492072 1.04289902 -22.27734375 -2.61328125 C-14.21002083 -5.96198133 -7.07157728 -4.90652181 0 0 Z " fill="#000000" transform="translate(3202.27734375,2631.61328125)"/>
<path d="M0 0 C4.77547154 2.7398665 7.61298997 6.12364564 10 11.125 C11.19988003 16.79716012 11.43857403 22.07759708 9.625 27.625 C5.81177296 33.03732224 1.29559483 36.99831358 -5.3125 38.375 C-10.83620079 38.88645378 -15.53708054 38.21216097 -20.3125 35.375 C-24.45629285 31.54808543 -28.79095892 27.0393341 -29.61328125 21.26171875 C-29.64977643 14.41278944 -28.00585915 9.82096321 -24.0625 4.125 C-17.52764932 -2.40985068 -8.39642236 -3.78631121 0 0 Z " fill="#000000" transform="translate(1614.3125,66.625)"/>
<path d="M0 0 C4.40664178 2.63470793 7.08623451 6.46601095 9.23046875 11.046875 C10.75161034 18.50046878 10.02596553 23.17344345 6.41796875 29.8359375 C3.31140859 34.35598254 -0.72716498 37.05309316 -6.14453125 38.109375 C-13.54227752 38.59447312 -18.18915062 37.15540774 -24.39453125 32.859375 C-28.62450383 28.62940242 -30.27786266 24.53025549 -30.51953125 18.609375 C-30.24013963 11.45452004 -27.15556273 6.12040648 -22.14453125 1.109375 C-15.04496371 -2.98652935 -7.50844309 -3.17722542 0 0 Z " fill="#000000" transform="translate(230.14453125,66.890625)"/>
<path d="M0 0 C4.60494656 3.39482833 6.86972307 6.66657007 8.0625 12.25 C8.77026932 19.61352311 7.61428677 25.1311495 2.8125 31 C-2.56720802 35.40157929 -7.60315885 36.83054491 -14.44140625 36.6015625 C-19.7061374 35.86005107 -23.52431337 33.66318663 -27.25 29.9375 C-31.09851899 23.80837717 -33.0511114 18.45135373 -31.9375 11.25 C-29.9348694 5.15597355 -26.88752298 1.37081771 -21.19140625 -1.6875 C-13.77571743 -5.02978229 -6.84515079 -4.30044376 0 0 Z " fill="#000000" transform="translate(2206.9375,45.75)"/>
<path d="M0 0 C5.54516952 4.77142494 8.94131293 8.99720179 9.6875 16.3125 C9.77010613 22.39437603 8.68610018 26.5574079 4.6875 31.3125 C-1.07859984 36.88237131 -5.54481469 37.61216466 -13.3671875 37.52734375 C-19.67247075 37.0674093 -23.25518828 33.91809709 -27.3125 29.3125 C-30.34102537 25.09419681 -31.62386117 21.40912832 -31.09765625 16.17578125 C-29.99018572 9.96339895 -27.7514827 4.84932804 -22.5703125 1.02734375 C-15.24607945 -3.35776574 -7.69117655 -3.91814655 0 0 Z " fill="#000000" transform="translate(1944.3125,2685.6875)"/>
<path d="M0 0 C4.59589947 3.95461117 8.41460035 7.67558738 8.890625 14.01953125 C9.00548746 21.629169 8.48679633 26.14487521 3.3125 32 C-2.28413429 36.9303683 -6.0863016 37.80485915 -13.4375 37.59765625 C-19.69488829 36.97701855 -23.26197532 33.91039287 -27.3125 29.3125 C-30.6635311 25.00403144 -31.42595397 20.67101811 -31.3125 15.3125 C-30.37918789 8.74637482 -27.59258936 4.74948821 -22.4140625 0.69140625 C-15.49401739 -3.84906944 -7.2395298 -3.68806235 0 0 Z " fill="#000000" transform="translate(559.3125,2685.6875)"/>
<path d="M0 0 C5.10614936 2.79527928 8.59968558 6.18228003 10.35546875 11.9140625 C11.62045507 18.40181413 10.82941091 23.10861506 7.75 28.9375 C4.82193145 33.23200053 1.81167829 35.77617375 -3.0625 37.625 C-11.28729326 38.79997047 -16.60208112 37.4629823 -23.5 32.6875 C-27.72997258 28.45752742 -29.38333141 24.35838049 -29.625 18.4375 C-29.34560838 11.28264504 -26.26103148 5.94853148 -21.25 0.9375 C-14.02190304 -3.23255594 -7.51412546 -3.38303123 0 0 Z " fill="#000000" transform="translate(229.25,2683.0625)"/>
<path d="M0 0 C4.74662676 4.84592858 6.74358052 8.97425008 7.3125 15.6875 C7.1922119 21.5597464 5.32627806 26.72139157 1.09375 30.8671875 C-4.698638 35.38438561 -9.59973597 36.71311635 -17 36 C-23.5636006 34.66023883 -27.28479026 31.47504593 -31 26 C-33.54605713 21.60226496 -33.55366849 16.95746251 -33 12 C-31.0754043 6.22621291 -28.53291324 1.77303927 -23.5 -1.75 C-15.60394277 -5.69802862 -7.29247351 -4.84370934 0 0 Z " fill="#000000" transform="translate(1547,2680)"/>
<path d="M0 0 C5.54516952 4.77142494 8.94131293 8.99720179 9.6875 16.3125 C9.77010613 22.39437603 8.68610018 26.5574079 4.6875 31.3125 C-1.07706575 36.88088943 -5.54975318 37.62848914 -13.375 37.515625 C-19.13283291 37.11747698 -22.1667464 34.68682169 -26.0625 30.6875 C-29.98381053 25.9401928 -31.63034279 21.38391483 -31.1484375 15.2109375 C-30.02748955 9.51828024 -27.27497782 4.50446789 -22.5703125 1.0234375 C-15.23824848 -3.35062644 -7.69598602 -3.92059665 0 0 Z " fill="#000000" transform="translate(1944.3125,69.6875)"/>
<path d="M0 0 C4.06394754 3.60438806 6.3767729 7.03139589 7.203125 12.46484375 C7.45399894 18.88236099 6.84776029 24.43119202 2.76171875 29.5625 C-3.13005674 34.91865954 -8.36525125 35.94183899 -16.23046875 35.828125 C-21.60050999 35.35388759 -24.40397207 33.60942229 -27.95703125 29.64453125 C-32.00073659 24.25610314 -33.67483045 19.30718509 -33.23828125 12.5625 C-32.25701107 6.38495817 -29.0863936 2.80246953 -24.2734375 -1.0234375 C-16.69267378 -6.29068599 -7.35611512 -5.25223635 0 0 Z " fill="#000000" transform="translate(2013.23828125,45.4375)"/>
<path d="M0 0 C4.81354184 3.82895373 8.29824688 8.91423739 9.3515625 15.046875 C9.61620794 21.25401358 7.67765593 25.93887986 3.8125 30.6875 C-1.29152465 34.88414249 -6.22965003 37.71866012 -12.98828125 37.3203125 C-19.37074311 36.30407585 -23.85769107 34.0891224 -28 29 C-31.88195208 23.51172292 -31.89339024 17.47495214 -31 11 C-28.81462591 5.0849208 -24.5512554 0.8936074 -19 -2 C-12.28279251 -4.04777005 -6.14448273 -3.21483485 0 0 Z " fill="#000000" transform="translate(3065,33)"/>
<path d="M0 0 C4.74662676 4.84592858 6.74358052 8.97425008 7.3125 15.6875 C7.2188182 21.26677151 5.29087207 26.41413893 1.57421875 30.609375 C-3.43240787 35.00796169 -8.05962838 36.50050198 -14.59765625 36.3046875 C-20.95363162 35.49856379 -25.55228224 33.05006377 -29.5 28 C-33.00586447 23.01388165 -33.63352699 18.0411324 -33 12 C-30.68334728 5.16587448 -27.53993806 0.26996903 -21 -3 C-13.79674105 -5.73227064 -6.24655617 -4.1490041 0 0 Z " fill="#000000" transform="translate(161,2680)"/>
<path d="M0 0 C5.1914326 2.21739328 8.50085577 6.31515271 10.890625 11.33203125 C12.81672972 17.17163056 12.68407549 23.66573912 10.1875 29.3125 C7.34291714 34.26004234 3.09168966 37.15693678 -2.25 38.9375 C-8.30867255 39.5345582 -14.09921497 39.60476705 -19.45703125 36.4453125 C-24.05876818 32.57544222 -26.76872732 27.8177319 -27.7578125 21.8984375 C-27.99846978 15.5611292 -27.37253277 9.93787668 -23.25 4.9375 C-16.24209891 -1.71358331 -9.10225805 -2.73934623 0 0 Z " fill="#000000" transform="translate(3455.25,2621.0625)"/>
<path d="M0 0 C5.02861635 5.02861635 6.68645692 9.48831751 7.3125 16.5 C6.76254562 22.65948907 4.29467147 27.58262364 0 32 C-6.51803296 35.87507876 -12.59862815 35.88715074 -20 35 C-24.79219195 33.34625278 -27.81222267 30.74184162 -30.4375 26.4375 C-33.36449846 19.99810339 -33.92567002 14.29769945 -32 7.4375 C-28.84094909 2.00788125 -24.64623848 -1.64872929 -19.0625 -4.5 C-11.71426267 -5.69971222 -6.02402725 -4.28632708 0 0 Z " fill="#000000" transform="translate(361,2621)"/>
<path d="M0 0 C4.74662676 4.84592858 6.74358052 8.97425008 7.3125 15.6875 C7.2188182 21.26677151 5.29087207 26.41413893 1.57421875 30.609375 C-3.43240787 35.00796169 -8.05962838 36.50050198 -14.59765625 36.3046875 C-20.95363162 35.49856379 -25.55228224 33.05006377 -29.5 28 C-33.00586447 23.01388165 -33.63352699 18.0411324 -33 12 C-30.68334728 5.16587448 -27.53993806 0.26996903 -21 -3 C-13.79674105 -5.73227064 -6.24655617 -4.1490041 0 0 Z " fill="#000000" transform="translate(161,64)"/>
<path d="M0 0 C4.85992265 2.45165741 8.17369634 6.74164648 10.875 11.3828125 C13.02738233 18.1269438 12.2494462 24.06498447 9.21875 30.33203125 C6.46433264 34.53572054 2.61782148 36.80187201 -2.125 38.3828125 C-9.56321445 39.05500669 -15.97514846 38.95806437 -22.125 34.3828125 C-26.48041781 29.91277843 -28.21357018 25.81014896 -28.5 19.6328125 C-28.35191558 13.01837503 -26.38721718 7.64502968 -21.6875 2.9453125 C-15.02617718 -1.11646971 -7.59358421 -2.20548953 0 0 Z " fill="#000000" transform="translate(623.125,42.6171875)"/>
<path d="M0 0 C4.58315135 3.25033998 7.33232891 8.22745547 9.08203125 13.4765625 C9.8259363 20.54366046 8.11297851 25.61153424 4.08203125 31.4765625 C-0.37161644 35.83079841 -4.6425094 37.32735205 -10.73046875 37.7265625 C-17.74225931 37.60948251 -23.0407395 34.35379175 -27.91796875 29.4765625 C-31.16352301 23.95912026 -31.79049195 18.7312794 -30.91796875 12.4765625 C-28.80389709 5.62075949 -24.7812853 1.66925568 -18.60546875 -1.8359375 C-12.02527332 -3.51924331 -6.12197888 -2.98057816 0 0 Z " fill="#000000" transform="translate(3001.91796875,2683.5234375)"/>
<path d="M0 0 C4.78069065 3.93636819 7.81192308 8.1461274 8.69921875 14.34765625 C8.96361314 20.7322912 7.15625467 25.64409257 3.26171875 30.66015625 C-1.16038696 35.1875502 -4.77312345 36.91148088 -11.02734375 37.41015625 C-17.74357586 37.23045773 -22.69186332 33.91043655 -27.36328125 29.34765625 C-31.32540336 23.74603534 -32.15071653 18.09076399 -31.36328125 11.34765625 C-29.52404352 5.46209553 -26.4448141 1.73534482 -21.36328125 -1.65234375 C-14.18789722 -4.63080504 -6.57730036 -4.27754499 0 0 Z " fill="#000000" transform="translate(1348.36328125,22.65234375)"/>
<path d="M0 0 C5.12328343 3.60489096 8.33373927 7.52847105 9.625 13.75 C9.83829346 20.80053373 8.35993495 26.4247355 3.625 31.75 C-1.17124231 35.96044172 -7.10878846 37.14163822 -13.375 36.75 C-19.47369171 35.24305583 -24.5417876 32.86094987 -28.375 27.75 C-31.74971103 21.83433008 -31.91855337 16.3101018 -30.375 9.75 C-28.50499494 4.26748515 -25.28011554 1.58856424 -20.375 -1.3046875 C-13.73408039 -4.44355966 -6.26725605 -3.73218619 0 0 Z " fill="#000000" transform="translate(3200.375,14.25)"/>
<path d="M0 0 C4.22758328 2.48938272 6.84784799 6.31212096 9.265625 10.48828125 C10.86921717 17.22336837 10.49398966 24.08652698 6.890625 30.11328125 C2.28132949 35.36275669 -2.50652138 37.77968369 -9.484375 38.42578125 C-15.8585699 37.87628169 -21.63821433 35.83283974 -26.109375 31.11328125 C-29.61846474 25.39519075 -31.23722229 19.78538835 -30.109375 13.11328125 C-28.33953939 6.71374322 -24.76192719 3.6655353 -19.23046875 0.2421875 C-13.00416204 -3.07162951 -6.36637925 -2.64430319 0 0 Z " fill="#000000" transform="translate(2600.109375,2682.88671875)"/>
<path d="M0 0 C4.97220299 4.40717993 8.82330042 8.55612695 9.875 15.3125 C10.09128444 20.93589537 8.78018728 25.69211237 5.75 30.4375 C-0.22195265 36.24454666 -4.91655821 37.79756299 -13.1328125 37.71875 C-18.86029308 37.20198483 -22.60580346 35.08169654 -26.625 31.0625 C-30.13223643 25.39696423 -30.99314187 19.98858137 -30.25 13.4375 C-28.41642209 7.93676627 -26.28375667 3.19095569 -21.12109375 0.20703125 C-13.75131188 -3.1722271 -7.36778073 -3.54220227 0 0 Z " fill="#000000" transform="translate(3396.25,2659.5625)"/>
<path d="M0 0 C4.59589947 3.95461117 8.41460035 7.67558738 8.890625 14.01953125 C9.00548746 21.629169 8.48679633 26.14487521 3.3125 32 C-2.2833596 36.92968584 -6.09103735 37.81969197 -13.4453125 37.5859375 C-20.11425923 36.94993441 -23.71830801 33.46188721 -27.828125 28.48828125 C-30.90301293 23.98114289 -31.57591215 19.56394183 -31.1875 14.1875 C-29.63810871 7.32591002 -25.99140069 3.32113578 -20.3125 -0.6875 C-13.50276323 -3.56854248 -6.56280451 -3.34331551 0 0 Z " fill="#000000" transform="translate(559.3125,69.6875)"/>
<path d="M0 0 C4.22758328 2.48938272 6.84784799 6.31212096 9.265625 10.48828125 C10.86921717 17.22336837 10.49398966 24.08652698 6.890625 30.11328125 C2.28132949 35.36275669 -2.50652138 37.77968369 -9.484375 38.42578125 C-15.8585699 37.87628169 -21.63821433 35.83283974 -26.109375 31.11328125 C-29.61846474 25.39519075 -31.23722229 19.78538835 -30.109375 13.11328125 C-28.33953939 6.71374322 -24.76192719 3.6655353 -19.23046875 0.2421875 C-13.00416204 -3.07162951 -6.36637925 -2.64430319 0 0 Z " fill="#000000" transform="translate(2600.109375,66.88671875)"/>
<path d="M0 0 C4.74662676 4.84592858 6.74358052 8.97425008 7.3125 15.6875 C7.1922119 21.5597464 5.32627806 26.72139157 1.09375 30.8671875 C-4.61617289 35.32007513 -9.67840028 36.89098833 -17 36 C-23.40209408 34.2992745 -27.12641569 31.37576435 -30.90625 26 C-33.30638057 21.61118982 -33.51618882 16.92222906 -33 12 C-30.68334728 5.16587448 -27.53993806 0.26996903 -21 -3 C-13.79674105 -5.73227064 -6.24655617 -4.1490041 0 0 Z " fill="#000000" transform="translate(1547,64)"/>
<path d="M0 0 C4.64468764 4.48452599 7.03349282 8.87894534 7.375 15.3125 C7.22556957 20.92548039 5.42182978 25.44866061 1.5390625 29.5390625 C-4.23278791 34.54914585 -8.51969896 35.45855817 -16.0234375 35.3125 C-21.61797862 34.7251466 -25.08791413 32.22843853 -28.8125 28.0625 C-32.81676422 22.45653009 -33.86343408 17.80784562 -33 11 C-31.3402066 4.62345194 -28.41074298 0.72190389 -22.9375 -2.91015625 C-15.40112973 -7.14936453 -6.665173 -4.74252694 0 0 Z " fill="#000000" transform="translate(1877,2673)"/>
<path d="M0 0 C5.04080023 3.72059065 8.66281729 7.93394097 10.625 13.9375 C11.42078516 20.12796829 11.11489608 25.74279681 7.96875 31.21484375 C4.96139756 35.07019964 1.21769851 37.4066005 -3.375 38.9375 C-10.0939676 39.76050607 -15.64334487 38.56569334 -21.375 34.9375 C-25.19619646 31.46030419 -28.07552399 27.37509542 -28.7109375 22.203125 C-28.79604351 15.63294104 -28.66708644 10.17175175 -24.375 4.9375 C-17.36010103 -1.9735844 -9.23765117 -2.90814944 0 0 Z " fill="#000000" transform="translate(3456.375,5.0625)"/>
<path d="M0 0 C4.27391115 4.38942227 6.01719924 9.30789466 6.875 15.3125 C6.52080125 21.62482764 3.20756166 27.43134702 -1.125 31.875 C-6.44255312 34.98771402 -11.53836458 36.14960039 -17.6875 35.375 C-24.52162552 33.05834728 -29.41753097 29.91493806 -32.6875 23.375 C-34.65803685 18.17994831 -34.17690522 12.81874541 -32.4375 7.6875 C-29.34866789 1.84078208 -26.15218123 -1.93150022 -19.875 -4.3125 C-11.95192985 -5.44436716 -6.87721848 -4.15831815 0 0 Z " fill="#000000" transform="translate(2675.6875,2680.625)"/>
<path d="M0 0 C4.14107685 4.25299785 6.49466663 9.53448407 6.75 15.5 C6.04373564 21.75548438 3.84622005 26.96058837 -0.6875 31.375 C-5.94864828 34.55664303 -11.49818265 36.68163366 -17.6875 35.375 C-24.74681068 32.92806102 -29.01946831 29.88279816 -32.6875 23.375 C-34.81477549 16.43047484 -34.04746618 10.73493598 -30.6875 4.375 C-27.75943145 0.08049947 -24.74917829 -2.46367375 -19.875 -4.3125 C-11.95192985 -5.44436716 -6.87721848 -4.15831815 0 0 Z " fill="#000000" transform="translate(1289.6875,2680.625)"/>
<path d="M0 0 C5.01177966 2.22427554 8.02407458 5.55817953 10.61328125 10.34765625 C12.44869816 15.85390698 12.7574067 22.28514805 10.70703125 27.7734375 C7.56221143 33.12567892 3.55204668 36.36806777 -2.38671875 38.34765625 C-8.523413 38.89493454 -14.59871664 39.36148123 -19.85546875 35.75390625 C-25.12359993 30.91582659 -28.0879985 26.23101956 -28.63671875 19.09765625 C-28.21438946 12.7627169 -26.79387142 8.24551515 -21.94921875 3.97265625 C-15.35593788 -1.30786848 -8.21525013 -2.24541207 0 0 Z " fill="#000000" transform="translate(2008.38671875,2658.65234375)"/>
<path d="M0 0 C5.08587206 2.70806175 8.58044998 7.0024775 10.7421875 12.2734375 C11.6000822 19.90471011 11.57212364 26.13811321 6.7421875 32.2734375 C0.67674321 37.88397347 -3.91531164 38.72671666 -12.0546875 38.58984375 C-17.70597157 38.03160715 -20.69846773 35.95921563 -24.5703125 31.7734375 C-28.13303181 26.49533482 -30.03389985 21.40557826 -28.82421875 14.96484375 C-26.92016051 8.58571079 -24.13584366 4.43196087 -18.7578125 0.3984375 C-12.79007998 -1.51976224 -6.03644909 -1.94252514 0 0 Z " fill="#000000" transform="translate(2799.2578125,2616.7265625)"/>
<path d="M0 0 C4.98382253 4.17499214 8.22648158 9.03204675 8.83984375 15.51953125 C8.96394737 21.41445335 8.32475847 25.54050647 4.08984375 30 C-1.38429125 35.02603103 -6.63427655 36.90050061 -14.0625 36.67578125 C-20.11752199 35.87392774 -24.07781326 33.12231004 -27.80078125 28.37109375 C-31.56667599 23.11731145 -32.10304946 17.70601022 -31.36328125 11.37109375 C-29.52404352 5.48553303 -26.4448141 1.75878232 -21.36328125 -1.62890625 C-14.15796176 -4.61979358 -6.62612209 -4.21662315 0 0 Z " fill="#000000" transform="translate(2733.36328125,22.62890625)"/>
<path d="M0 0 C5.08587206 2.70806175 8.58044998 7.0024775 10.7421875 12.2734375 C11.6000822 19.90471011 11.57212364 26.13811321 6.7421875 32.2734375 C0.67674321 37.88397347 -3.91531164 38.72671666 -12.0546875 38.58984375 C-17.70597157 38.03160715 -20.69846773 35.95921563 -24.5703125 31.7734375 C-28.13303181 26.49533482 -30.03389985 21.40557826 -28.82421875 14.96484375 C-26.92016051 8.58571079 -24.13584366 4.43196087 -18.7578125 0.3984375 C-12.79007998 -1.51976224 -6.03644909 -1.94252514 0 0 Z " fill="#000000" transform="translate(2799.2578125,0.7265625)"/>
<path d="M0 0 C4.40411275 3.79243042 6.87911936 8.28771628 7.828125 14.01171875 C8.19946682 20.33545154 6.46530054 25.53881132 2.515625 30.44921875 C-2.96181942 34.78022131 -8.19432615 36.76344041 -15.171875 36.57421875 C-21.91216278 35.22132945 -25.54754553 31.66717849 -29.921875 26.51171875 C-32.66614491 22.25810039 -32.66571678 17.52161547 -32.171875 12.57421875 C-30.58864813 5.80498892 -27.38850446 1.82585937 -21.671875 -2.17578125 C-14.17420338 -5.92461706 -6.73020713 -4.62370529 0 0 Z " fill="#000000" transform="translate(1089.171875,4.42578125)"/>
<path d="M0 0 C5.50010675 4.62508977 9.35444975 9.19877739 10.0625 16.5625 C9.55942073 22.59945124 8.26914738 27.47353211 4.375 32.1875 C-1.00417156 36.54206746 -5.26589215 38.49936576 -12.25 38.3125 C-19.02063399 36.93375272 -24.19950026 33.35289617 -28.0625 27.625 C-30.45475296 20.95187333 -31.20069539 14.65857428 -28.26171875 8.0625 C-25.09250483 2.58061646 -20.29310413 -0.4390159 -14.33984375 -2.27734375 C-9.26160562 -3.27400731 -4.54042346 -2.35752756 0 0 Z " fill="#000000" transform="translate(2472.25,2.6875)"/>
<path d="M0 0 C5.1034612 4.59665097 6.45124899 10.28131447 6.94140625 16.8984375 C6.48312955 23.54344972 4.53456065 27.0360374 -0.30859375 31.3984375 C-5.41359138 35.71061353 -9.77564756 35.87157865 -16.296875 35.80078125 C-21.89701172 35.28507476 -25.36438522 32.77430235 -29.12109375 28.6484375 C-32.91620777 23.22684604 -34.0901271 18.10881685 -33.30859375 11.5234375 C-31.46977452 4.97264398 -27.7069028 1.36753089 -22.30859375 -2.4765625 C-14.99530786 -6.29218992 -6.55993757 -4.5853301 0 0 Z " fill="#000000" transform="translate(361.30859375,4.4765625)"/>
<path d="M0 0 C4.58315135 3.25033998 7.33232891 8.22745547 9.08203125 13.4765625 C9.5183032 19.03902981 8.92865747 23.66934604 6.08203125 28.4765625 C1.1593969 33.91063937 -3.40800402 37.19350083 -10.79296875 37.7890625 C-17.7624177 37.57945501 -23.06704708 34.32748417 -27.91796875 29.4765625 C-31.16352301 23.95912026 -31.79049195 18.7312794 -30.91796875 12.4765625 C-28.80389709 5.62075949 -24.7812853 1.66925568 -18.60546875 -1.8359375 C-12.02527332 -3.51924331 -6.12197888 -2.98057816 0 0 Z " fill="#000000" transform="translate(3001.91796875,67.5234375)"/>
<path d="M0 0 C5.20243655 4.373363 7.63507388 8.57894002 8.625 15.3125 C8.97221107 21.34300804 7.96266503 25.72933791 3.984375 30.35546875 C-0.98262296 35.09758294 -5.47980802 37.3193452 -12.34765625 37.3984375 C-17.28243659 37.0371241 -21.52691288 35.61715734 -25.3125 32.375 C-30.19643979 26.11548026 -32.21311655 20.30042567 -31.3125 12.375 C-29.45489938 6.19791841 -25.68968888 1.84232052 -20.3125 -1.625 C-13.19607054 -4.65607181 -6.3859874 -4.43932953 0 0 Z " fill="#000000" transform="translate(2343.3125,54.625)"/>
<path d="M0 0 C4.01892841 2.86063463 6.92080374 6.70931412 8.7890625 11.2734375 C9.68422189 18.65329807 9.38817279 24.34300581 4.7890625 30.2734375 C0.32886289 34.84361464 -4.02638273 37.28613385 -10.3984375 37.7109375 C-16.75305397 37.53058945 -22.51511925 35.11114092 -26.91796875 30.4765625 C-30.69839948 25.02925597 -31.82514028 19.47401972 -30.87109375 12.94921875 C-28.96745704 5.6208395 -24.12448661 1.581428 -17.7734375 -2.1640625 C-11.27607522 -3.59031276 -5.85755184 -3.29049725 0 0 Z " fill="#000000" transform="translate(489.2109375,54.7265625)"/>
<path d="M0 0 C4.29816086 3.05000498 7.47270301 7.12376235 8.7890625 12.26953125 C9.59673574 19.89915887 7.94279234 25.15858815 3.5390625 31.51953125 C-0.65861263 35.71720638 -4.7731123 37.39354574 -10.6484375 37.70703125 C-17.26518942 37.43695974 -22.11510874 34.7634428 -26.5859375 29.95703125 C-30.42410348 25.02075239 -31.44704845 20.39221375 -31.0859375 14.20703125 C-30.33054555 8.41862082 -28.05706578 5.01849488 -23.8359375 1.01953125 C-16.33489126 -3.98116624 -7.83461802 -4.41672689 0 0 Z " fill="#000000" transform="translate(1484.2109375,22.73046875)"/>
<path d="M0 0 C4.77412097 4.09210369 8.06862367 8.09572337 8.91796875 14.4375 C9.31603372 21.32294813 7.587072 26.60611098 3.625 32.25 C-1.07479485 36.70305562 -6.34686873 37.66180003 -12.60546875 37.59765625 C-18.58065017 36.84759822 -23.55519516 33.9788146 -27.875 29.875 C-31.57445268 23.40095782 -32.00003977 17.41440891 -30.375 10.25 C-27.40143243 4.41299699 -23.1706358 0.43276899 -17.125 -2.125 C-10.92239335 -3.15876778 -5.63058718 -2.91956372 0 0 Z " fill="#000000" transform="translate(2402.375,12.75)"/>
<path d="M0 0 C5.87912765 4.37116958 9.24474431 7.99495298 10.34375 15.3515625 C10.80835734 21.72332025 9.08790145 26.11033533 5.59375 31.3515625 C1.12357338 35.95321491 -3.47545341 37.65296617 -9.78125 37.7890625 C-14.47299448 37.68891032 -18.57374131 37.20788664 -22.53125 34.5390625 C-27.69778806 28.5076909 -29.90477136 23.07651669 -29.8125 15.17578125 C-29.24420476 9.84801335 -26.97146686 6.01928538 -23.28125 2.2265625 C-15.82623565 -2.3481054 -8.08422662 -4.66589623 0 0 Z " fill="#000000" transform="translate(819.53125,2660.4609375)"/>
<path d="M0 0 C4.27391115 4.38942227 6.01719924 9.30789466 6.875 15.3125 C6.52080125 21.62482764 3.20756166 27.43134702 -1.125 31.875 C-6.36458948 34.94207677 -11.62188227 36.4019829 -17.6875 35.375 C-24.74680673 32.96082487 -29.02904729 29.8658032 -32.6875 23.375 C-34.81477549 16.43047484 -34.04746618 10.73493598 -30.6875 4.375 C-27.75943145 0.08049947 -24.74917829 -2.46367375 -19.875 -4.3125 C-11.95192985 -5.44436716 -6.87721848 -4.15831815 0 0 Z " fill="#000000" transform="translate(1289.6875,64.625)"/>
<path d="M0 0 C5.87912765 4.37116958 9.24474431 7.99495298 10.34375 15.3515625 C10.80835734 21.72332025 9.08790145 26.11033533 5.59375 31.3515625 C1.12357338 35.95321491 -3.47545341 37.65296617 -9.78125 37.7890625 C-14.47299448 37.68891032 -18.57374131 37.20788664 -22.53125 34.5390625 C-27.69778806 28.5076909 -29.90477136 23.07651669 -29.8125 15.17578125 C-29.24420476 9.84801335 -26.97146686 6.01928538 -23.28125 2.2265625 C-15.82623565 -2.3481054 -8.08422662 -4.66589623 0 0 Z " fill="#000000" transform="translate(819.53125,44.4609375)"/>
<path d="M0 0 C4.97220299 4.40717993 8.82330042 8.55612695 9.875 15.3125 C10.09142023 20.93942609 8.77561275 25.68647024 5.75 30.4375 C1.17442831 34.96713222 -3.31219379 37.54121916 -9.8125 37.8125 C-15.78552551 37.74253777 -20.38191072 35.84605246 -25.25 32.4375 C-29.68801285 27.13353343 -30.55707388 22.46974893 -30.46875 15.74609375 C-29.94227887 10.18994305 -27.24821614 5.23067941 -23.25 1.4375 C-15.49673556 -3.04374458 -8.1506095 -3.91856226 0 0 Z " fill="#000000" transform="translate(3396.25,43.5625)"/>
<path d="M0 0 C5.77420012 4.98680919 8.6810532 9.77395484 9.25 17.3125 C8.78043118 24.23864008 5.79233308 29.09621732 1 34 C-4.04320174 37.51851284 -9.04735176 37.9178092 -15 37 C-22.0892441 34.6849348 -26.35185253 31.47251971 -30 25 C-31.90375783 18.66658343 -31.60704047 13.68949354 -28.8125 7.75 C-26.08182611 2.74887815 -23.43046778 0.0802079 -18.1875 -2.25 C-11.24383171 -3.8838043 -6.27925251 -3.43581741 0 0 Z " fill="#000000" transform="translate(2538,34)"/>
<path d="M0 0 C5.80337487 4.12932443 9.04824376 8.22213818 10.25 15.3125 C10.34035401 21.67116345 8.92478826 26.14793271 5.25 31.3125 C0.50755563 36.10460347 -3.37960085 37.47854662 -10.0625 37.625 C-15.51615117 37.57052402 -18.66381999 37.19437101 -22.75 33.3125 C-27.59662427 28.24557463 -29.50977179 24.3393755 -30.0625 17.375 C-29.88467063 11.16282749 -27.23277181 5.56538608 -22.75 1.3125 C-15.09560583 -3.03972773 -7.9688795 -4.07910247 0 0 Z " fill="#000000" transform="translate(3128.75,2.6875)"/>
<path d="M0 0 C5.01177966 2.22427554 8.02407458 5.55817953 10.61328125 10.34765625 C12.58431566 16.26075948 12.61068631 22.9792795 10.05078125 28.72265625 C7.20619839 33.67019859 2.95497091 36.56709303 -2.38671875 38.34765625 C-9.53260921 39.05185547 -15.49231928 38.70147404 -21.38671875 34.34765625 C-25.75284842 30.2822549 -28.06676524 26.06726105 -28.76171875 20.16015625 C-28.14042412 13.84366087 -26.34672757 7.6026892 -21.38671875 3.34765625 C-14.59833908 -1.1779302 -8.04857187 -2.19985516 0 0 Z " fill="#000000" transform="translate(3527.38671875,2621.65234375)"/>
<path d="M0 0 C4.03831541 4.03831541 6.04320265 7.35489562 7 13 C6.98759642 20.09484581 5.33676385 25.36365104 0.5625 30.75 C-4.90536666 35.55105365 -9.50286839 35.43091099 -16.64453125 35.3125 C-22.4751367 34.76948669 -24.85309029 32.19904197 -28.75 28.125 C-32.63056576 22.73532534 -33.78339892 17.60109906 -33 11 C-31.1623548 4.45338897 -27.39990093 0.83786062 -22 -3 C-14.3803798 -6.89086989 -6.64043105 -4.72492209 0 0 Z " fill="#000000" transform="translate(3132,2621)"/>
<path d="M0 0 C4.64468764 4.48452599 7.03349282 8.87894534 7.375 15.3125 C7.22518883 20.93978218 5.38605255 25.35925645 1.609375 29.5390625 C-3.53459769 34.16863792 -8.95312799 35.49410766 -15.6953125 35.3125 C-21.06094823 34.58495617 -25.310836 32.09563294 -28.875 28.0625 C-32.78966677 22.42077435 -33.86206282 17.7970338 -33 11 C-31.3402066 4.62345194 -28.41074298 0.72190389 -22.9375 -2.91015625 C-15.40112973 -7.14936453 -6.665173 -4.74252694 0 0 Z " fill="#000000" transform="translate(1877,57)"/>
<path d="M0 0 C3.93535629 2.93222626 5.12542994 4.94536801 7.1875 9.375 C7.620625 10.303125 8.05375 11.23125 8.5 12.1875 C9.77486945 18.09825837 9.22249868 23.37893112 6.4375 28.75 C2.14957831 33.75257531 -2.34633642 36.95871282 -8.8125 38.375 C-15.09892144 38.65632006 -19.76155752 37.03940925 -24.8125 33.375 C-29.3398968 27.86870659 -31.12289107 22.39556939 -30.6875 15.3125 C-29.88371942 9.21485419 -27.3613486 5.88942975 -23 1.625 C-15.85264259 -3.42019347 -7.8126914 -3.8812514 0 0 Z " fill="#000000" transform="translate(1016.8125,12.625)"/>
<path d="M0 0 C5.01177966 2.22427554 8.02407458 5.55817953 10.61328125 10.34765625 C12.58431566 16.26075948 12.61068631 22.9792795 10.05078125 28.72265625 C7.20619839 33.67019859 2.95497091 36.56709303 -2.38671875 38.34765625 C-9.53260921 39.05185547 -15.49231928 38.70147404 -21.38671875 34.34765625 C-25.75284842 30.2822549 -28.06676524 26.06726105 -28.76171875 20.16015625 C-28.14042412 13.84366087 -26.34672757 7.6026892 -21.38671875 3.34765625 C-14.59833908 -1.1779302 -8.04857187 -2.19985516 0 0 Z " fill="#000000" transform="translate(3527.38671875,5.65234375)"/>
<path d="M0 0 C3.97632557 3.76654341 7.04806454 7.49992848 8 13 C8.06986758 19.66736319 7.54951174 24.83568937 3 30 C-2.78359708 35.55649249 -7.22128826 36.31077416 -15.05859375 36.20703125 C-20.56520639 35.81944762 -23.58612007 33.65054203 -27.25 29.75 C-31.17088429 24.8205943 -32.24305026 20.23798 -31.875 14 C-31.08644572 7.96664281 -29.04001925 4.04001925 -24.6875 -0.3125 C-16.85244772 -5.23218399 -7.70578729 -5.13719153 0 0 Z " fill="#000000" transform="translate(2274,2687)"/>
<path d="M0 0 C4.67922999 3.30298588 6.98575264 7.67494037 8.6875 13.0625 C9.68819745 18.93384874 9.04016411 24.09465566 6.09765625 29.3046875 C2.51114442 33.77540861 -3.06208069 36.69492431 -8.73046875 37.3359375 C-15.66803417 37.59034752 -20.00317917 36.61872567 -25.3125 32.0625 C-29.39294973 27.98205027 -31.25463757 23.68854591 -31.34765625 17.859375 C-30.86989605 11.00759461 -28.62186789 5.91729183 -23.4375 1.25 C-16.07199828 -3.9058512 -7.98846499 -4.25850118 0 0 Z " fill="#000000" transform="translate(1815.3125,2629.9375)"/>
<path d="M0 0 C4.75848412 2.94647858 8.77184283 6.37782105 10.296875 11.8984375 C11.04183029 18.33450471 11.29578687 24.52489968 7.296875 29.8984375 C0.31962201 36.74727479 -3.41197334 38.26647413 -13.27734375 38.17578125 C-17.55011749 37.82986684 -19.63275158 36.8900834 -22.703125 33.8984375 C-23.610625 33.0528125 -24.518125 32.2071875 -25.453125 31.3359375 C-28.74316878 27.10588121 -29.53520032 22.15521009 -29.703125 16.8984375 C-28.59503275 9.58731338 -25.07933567 4.4305955 -19.203125 0.0234375 C-12.92387363 -1.9948933 -6.20649165 -2.52923504 0 0 Z " fill="#000000" transform="translate(1414.703125,2617.1015625)"/>
<path d="M0 0 C4.99824222 2.78311214 8.66790309 6.72537111 10.5625 12.1484375 C11.49292272 18.24957011 11.62883618 24.14154804 8.5625 29.6484375 C4.73717216 34.66386734 0.74912371 37.66247738 -5.5625 38.625 C-11.73206782 38.89634673 -16.77182999 38.56293158 -21.78125 34.7421875 C-26.86543118 29.84986222 -28.74864445 25.78452168 -29.0625 18.6484375 C-28.74864445 11.51235332 -26.86543118 7.44701278 -21.78125 2.5546875 C-15.55070163 -2.19742567 -7.2834414 -2.54453562 0 0 Z " fill="#000000" transform="translate(3664.4375,68.8515625)"/>
<path d="M0 0 C3.97632557 3.76654341 7.04806454 7.49992848 8 13 C8.06986758 19.66736319 7.54951174 24.83568937 3 30 C-2.78359708 35.55649249 -7.22128826 36.31077416 -15.05859375 36.20703125 C-20.56520639 35.81944762 -23.58612007 33.65054203 -27.25 29.75 C-31.17088429 24.8205943 -32.24305026 20.23798 -31.875 14 C-31.08644572 7.96664281 -29.04001925 4.04001925 -24.6875 -0.3125 C-16.85244772 -5.23218399 -7.70578729 -5.13719153 0 0 Z " fill="#000000" transform="translate(2274,71)"/>
<path d="M0 0 C3.90457264 2.93015717 6.78980888 5.59130201 8.125 10.375 C8.97788934 16.88389237 8.83700753 22.92722023 5.46484375 28.6875 C2.2233133 32.77012727 -1.74960839 35.40849758 -6.875 36.375 C-14.20390032 37.07944144 -19.40822975 35.65991675 -25.625 31.5625 C-30.02068491 27.28891745 -31.08515054 23.51718241 -31.3125 17.5 C-31.13149831 11.14920152 -29.78832284 6.57474503 -25.484375 1.84765625 C-17.91836554 -5.02148391 -8.51345715 -5.24552385 0 0 Z " fill="#000000" transform="translate(3591.875,45.625)"/>
<path d="M0 0 C4.75848412 2.94647858 8.77184283 6.37782105 10.296875 11.8984375 C11.04183029 18.33450471 11.29578687 24.52489968 7.296875 29.8984375 C0.31962201 36.74727479 -3.41197334 38.26647413 -13.27734375 38.17578125 C-17.55011749 37.82986684 -19.63275158 36.8900834 -22.703125 33.8984375 C-23.610625 33.0528125 -24.518125 32.2071875 -25.453125 31.3359375 C-28.74316878 27.10588121 -29.53520032 22.15521009 -29.703125 16.8984375 C-28.59503275 9.58731338 -25.07933567 4.4305955 -19.203125 0.0234375 C-12.92387363 -1.9948933 -6.20649165 -2.52923504 0 0 Z " fill="#000000" transform="translate(1414.703125,1.1015625)"/>
<path d="M0 0 C5.61786546 4.81531325 7.8530337 8.94601117 8.625 16.25 C8.71526391 22.33779949 7.62810561 26.48955009 3.625 31.25 C-1.9894975 36.67342821 -6.55752926 37.73052635 -14.2265625 37.65625 C-20.00818677 36.91023397 -24.03796089 33.97654563 -27.78125 29.609375 C-31.12714639 24.49493337 -31.89578943 18.85919189 -31.0390625 12.921875 C-29.37146114 6.55466982 -25.81217208 2.81751254 -20.375 -0.75 C-13.63190518 -3.74693103 -6.50639475 -3.37368617 0 0 Z " fill="#000000" transform="translate(3330.375,2685.75)"/>
<path d="M0 0 C4.59869355 3.81086956 8.08751652 8.12118684 8.9609375 14.22265625 C9.27342203 20.84492462 7.45007258 25.86460846 3.6875 31.3125 C-1.26242872 36.01493228 -6.82627736 36.73049075 -13.390625 36.65234375 C-18.89549193 36.01207179 -23.17830377 33.59986821 -26.9453125 29.5625 C-31.06394732 24.10236698 -31.97131243 19.05265797 -31.3125 12.3125 C-29.48391992 5.79818348 -25.76044971 2.06238746 -20.3125 -1.6875 C-13.22049895 -4.78219137 -6.33834367 -4.48867832 0 0 Z " fill="#000000" transform="translate(3260.3125,55.6875)"/>
<path d="M0 0 C4.62031311 2.7048083 7.8502189 6.2381567 9.5625 11.375 C10.23256977 18.7897065 10.18206221 25.27209212 5.5625 31.375 C1.12954415 36.00471891 -2.77521045 37.53302369 -9.125 37.6875 C-15.60579094 37.61705662 -20.26471404 36.41294255 -25 31.87890625 C-29.59151484 26.64823167 -29.78756682 22.14364767 -29.71484375 15.453125 C-29.17838626 9.49920249 -26.83638136 5.35372503 -22.375 1.4375 C-16.06621849 -2.99206999 -7.00268833 -3.22070207 0 0 Z " fill="#000000" transform="translate(3590.4375,2660.625)"/>
<path d="M0 0 C4.4863052 3.65164377 6.87996499 7.37035033 8 13 C8.3792522 20.01616573 6.69385089 25.72094173 2 31 C-2.80051738 35.21419465 -8.7297654 36.38255896 -15 36 C-21.79576232 34.4097126 -26.18964283 31.83460942 -30 26 C-31.71404873 22.37273491 -32.27249612 19.50430858 -32.25 15.5 C-32.25515625 14.5821875 -32.2603125 13.664375 -32.265625 12.71875 C-31.69820092 6.91099762 -29.31172703 3.81036342 -25 0 C-17.21988631 -5.31324838 -7.96906941 -5.18916148 0 0 Z " fill="#000000" transform="translate(431,2631)"/>
<path d="M0 0 C3.98577651 3.45188496 6.41216707 7.63125274 6.9296875 12.8828125 C7.10015648 19.24399718 6.78172211 24.36928077 2.69140625 29.46484375 C-1.78233602 33.59841668 -6.67787412 35.33828337 -12.71875 35.6640625 C-18.69071013 35.20468095 -23.54477446 32.81585427 -28.24609375 29.21484375 C-32.0332798 24.16526235 -33.64221947 19.75967853 -33.24609375 13.40234375 C-32.42156133 7.80239441 -30.9340145 3.54038172 -26.40625 -0.0390625 C-17.74071998 -5.70312402 -8.7099361 -6.07056152 0 0 Z " fill="#000000" transform="translate(1817.30859375,15.53515625)"/>
<path d="M0 0 C4.61322714 2.66982266 7.5436222 6.41073313 9.5625 11.3125 C10.42077022 18.94711303 10.4103376 25.18891567 5.5625 31.3125 C0.84071218 36.02195939 -2.99507513 37.48541554 -9.625 37.6875 C-15.89165374 37.61779306 -19.89152063 36.69765463 -24.4375 32.3125 C-28.46198723 28.04141428 -29.77140343 24.16014768 -30 18.3125 C-29.69930384 12.03744599 -28.46963112 7.06898284 -23.71875 2.75 C-16.75924157 -2.44014188 -8.05216695 -3.75364173 0 0 Z " fill="#000000" transform="translate(3665.4375,2685.6875)"/>
<path d="M0 0 C3.99378103 4.2330398 5.88531455 8.53822328 6.1328125 14.359375 C5.76632864 21.46916182 2.67851371 26.81367379 -2.3046875 31.796875 C-7.56077088 34.82923079 -12.36170915 35.69856827 -18.3046875 34.796875 C-24.48786614 32.90130199 -28.81892581 29.19123407 -32.3046875 23.796875 C-34.78004851 18.09278223 -34.64162712 12.77844189 -33.3046875 6.796875 C-30.37750847 0.59125546 -25.23946764 -2.75346916 -18.9296875 -5.078125 C-11.49390531 -5.43220987 -5.84332076 -4.96800551 0 0 Z " fill="#000000" transform="translate(1487.3046875,2641.203125)"/>
<path d="M0 0 C4.41270746 3.15856955 7.17371732 6.72749122 9.29296875 11.703125 C10.2052845 17.58249318 9.93150456 22.25575973 7.16796875 27.578125 C2.71846922 32.86942173 -1.21728999 36.17358479 -8.14453125 37.328125 C-15.98548701 37.42785099 -20.37397185 35.47025783 -26.39453125 30.453125 C-30.21026116 25.81973868 -30.59191435 20.6621091 -30.4609375 14.85546875 C-29.65416348 8.4112368 -26.13588245 3.36874264 -21.14453125 -0.671875 C-14.16128179 -4.00478952 -6.70144231 -3.79882159 0 0 Z " fill="#000000" transform="translate(2342.14453125,2670.671875)"/>
<path d="M0 0 C4.89872999 2.85759249 7.79346527 7.1303958 9.5625 12.4375 C10.26791898 19.23975448 10.38432616 25.12040353 6.15625 30.74609375 C1.31375251 35.88531289 -2.81246279 37.74913031 -9.9375 38.0625 C-17.07358418 37.74864445 -21.13892472 35.86543118 -26.03125 30.78125 C-29.85199408 25.77182999 -30.18540923 20.73206782 -29.9140625 14.5625 C-28.94662707 8.21866111 -25.94231633 4.24592146 -20.875 0.4375 C-14.49920963 -3.11799747 -6.61747124 -2.87716141 0 0 Z " fill="#000000" transform="translate(29.4375,2617.5625)"/>
<path d="M0 0 C4.99434079 2.78093976 8.63148938 6.74694697 10.5625 12.1484375 C11.54864914 18.6325863 11.25611229 24.71831643 7.90625 30.4609375 C4.86606662 34.27884221 1.15077714 36.61901179 -3.4375 38.1484375 C-10.23975448 38.85385648 -16.12040353 38.97026366 -21.74609375 34.7421875 C-26.88531289 29.89969001 -28.74913031 25.77347471 -29.0625 18.6484375 C-28.74864445 11.51235332 -26.86543118 7.44701278 -21.78125 2.5546875 C-15.55070163 -2.19742567 -7.2834414 -2.54453562 0 0 Z " fill="#000000" transform="translate(28.4375,0.8515625)"/>
<path d="M0 0 C3.99964594 3.4638966 6.41796227 7.64971561 6.9296875 12.91796875 C7.10270402 19.43795966 6.67039749 23.22932896 2.69140625 28.46484375 C-1.79226098 33.07135118 -6.14145593 35.49507551 -12.55859375 35.83984375 C-18.62433358 35.65817434 -23.689761 33.89700917 -28.171875 29.734375 C-32.12667491 25.0056047 -33.71635645 20.62206057 -33.30859375 14.46484375 C-32.36039068 7.43952099 -29.97212937 3.13968786 -24.34375 -1.19140625 C-16.48656316 -6.3792609 -7.54513422 -5.25872991 0 0 Z " fill="#000000" transform="translate(491.30859375,2672.53515625)"/>
<path d="M0 0 C4.29982937 2.9508633 8.18966205 7.54748742 9.7734375 12.546875 C10.88938194 18.74656634 10.02623103 23.98766104 7.125 29.5 C3.28138253 34.1746699 -0.55782242 37.12115799 -6.6796875 37.8203125 C-12.97292249 38.05572029 -18.09765893 37.88735405 -22.875 33.5 C-27.27208744 28.6232303 -29.6184107 24.83566095 -30.125 18.25 C-29.69295293 11.76929392 -27.60175678 6.09545798 -22.875 1.5 C-16.27392724 -2.48814813 -7.07696438 -3.53848219 0 0 Z " fill="#000000" transform="translate(292.875,2648.5)"/>
<path d="M0 0 C5.61786546 4.81531325 7.8530337 8.94601117 8.625 16.25 C8.71526391 22.33779949 7.62810561 26.48955009 3.625 31.25 C-2.03998826 36.7222007 -6.57306117 37.66842867 -14.29296875 37.59375 C-20.35817607 36.91727567 -23.90682818 33.98862452 -27.75 29.4375 C-31.09405917 22.87799932 -32.00366323 17.46265145 -30.375 10.25 C-27.29699484 4.43599025 -23.20761333 0.44841333 -17.125 -2.125 C-10.92239335 -3.15876778 -5.63058718 -2.91956372 0 0 Z " fill="#000000" transform="translate(3330.375,69.75)"/>
<path d="M0 0 C5.13890029 4.61475525 7.99535211 9.37206195 8.375 16.3125 C8.21075745 22.1286187 6.29223105 26.44109851 2.421875 30.76171875 C-1.93520207 34.81458548 -6.13393152 36.95260512 -12.23046875 37.02734375 C-19.07473813 36.58023068 -22.9506022 34.09597502 -27.75 29.1875 C-31.85128209 23.37735038 -32.43162627 18.25299072 -31.54296875 11.36328125 C-30.37271365 6.2697249 -26.96701971 2.2669574 -23 -1 C-15.7127855 -4.38940209 -6.93758277 -4.16254966 0 0 Z " fill="#000000" transform="translate(958,55)"/>
<path d="M0 0 C3.94162599 2.92176472 6.85697711 5.55850714 8.1875 10.375 C8.93245529 16.81106721 9.18641187 23.00146218 5.1875 28.375 C-0.13233738 33.69483738 -3.80639378 36.49387482 -11.5 36.75 C-17.55539753 36.691423 -21.33050028 35.44560844 -25.8125 31.375 C-30.19973074 26.5259555 -31.66386291 20.81885512 -31.8125 14.375 C-30.59178337 8.07248525 -27.79949968 3.34787343 -22.66015625 -0.50390625 C-15.14184809 -5.06575496 -7.29424191 -4.47955086 0 0 Z " fill="#000000" transform="translate(887.8125,2686.625)"/>
<path d="M0 0 C5.13890029 4.61475525 7.99535211 9.37206195 8.375 16.3125 C8.21075745 22.1286187 6.29223105 26.44109851 2.421875 30.76171875 C-1.93520207 34.81458548 -6.13393152 36.95260512 -12.23046875 37.02734375 C-19.07473813 36.58023068 -22.9506022 34.09597502 -27.75 29.1875 C-31.85128209 23.37735038 -32.43162627 18.25299072 -31.54296875 11.36328125 C-30.37271365 6.2697249 -26.96701971 2.2669574 -23 -1 C-15.7127855 -4.38940209 -6.93758277 -4.16254966 0 0 Z " fill="#000000" transform="translate(958,2671)"/>
<path d="M0 0 C3.94162599 2.92176472 6.85697711 5.55850714 8.1875 10.375 C8.93245529 16.81106721 9.18641187 23.00146218 5.1875 28.375 C-0.13233738 33.69483738 -3.80639378 36.49387482 -11.5 36.75 C-17.55539753 36.691423 -21.33050028 35.44560844 -25.8125 31.375 C-30.19973074 26.5259555 -31.66386291 20.81885512 -31.8125 14.375 C-30.59178337 8.07248525 -27.79949968 3.34787343 -22.66015625 -0.50390625 C-15.14184809 -5.06575496 -7.29424191 -4.47955086 0 0 Z " fill="#000000" transform="translate(887.8125,70.625)"/>
<path d="M0 0 C4.84311883 3.55162047 8.40411845 7.98178071 9.5625 13.9375 C10.10311983 20.96555781 8.71443233 26.320285 4.25 31.75 C-1.58131111 36.49641602 -6.09958086 37.50712049 -13.53515625 37.27734375 C-19.79930001 36.5438572 -22.97633804 33.78698776 -26.8125 28.9375 C-30.3598052 24.08129609 -30.83656208 19.92343113 -30.4375 13.9375 C-28.7829825 7.53841025 -26.23099685 2.62523768 -20.4375 -0.875 C-13.90834417 -3.30412679 -6.11705494 -3.51035539 0 0 Z " fill="#000000" transform="translate(293.4375,33.0625)"/>
<path d="M0 0 C4.87304183 4.19911052 7.6939421 8.81699787 8.3125 15.25 C7.80942073 21.28695124 6.51914738 26.16103211 2.625 30.875 C-2.7654323 35.23868329 -7.00739654 37.18162606 -14 37 C-19.99617663 35.90978607 -24.15563056 33.86199664 -28 29 C-31.57475678 23.51019494 -32.70535419 17.24713268 -31.6328125 10.7890625 C-29.94798642 5.36017846 -26.70889423 2.06531873 -22 -1 C-14.70517875 -4.34345974 -7.04389738 -3.65001955 0 0 Z " fill="#000000" transform="translate(2474,2620)"/>
<path d="M0 0 C4.81679914 3.97909494 7.86308177 8.04930959 8.875 14.25 C9.38973956 20.68424453 7.71620737 25.86633678 3.6875 30.875 C-1.81266475 35.22396748 -7.00672968 37.1615607 -14 37 C-20.1343854 36.04846167 -24.10585237 33.77483398 -27.84765625 28.8203125 C-31.37596758 23.24677664 -31.88576406 17.28387708 -30.5703125 10.921875 C-28.55940458 4.41745678 -24.34651094 0.84058102 -18.5 -2.375 C-11.93947281 -4.0151318 -6.01834015 -2.83948004 0 0 Z " fill="#000000" transform="translate(1088,2620)"/>
<path d="M0 0 C5.34785785 3.07876676 8.56612358 7.19446449 10.52734375 13.078125 C11.22206736 20.12786131 11.00790124 26.3341545 6.52734375 32.078125 C0.91700669 37.19118218 -4.10583675 38.46272504 -11.62109375 38.34375 C-17.00614071 37.84212919 -20.47831098 36.05965863 -24.296875 32.265625 C-28.54840994 26.8744012 -29.3403465 21.94724829 -28.984375 15.16796875 C-27.94392638 8.88556526 -24.98266044 4.89931464 -19.97265625 1.078125 C-13.9467986 -2.2771821 -6.40872816 -2.38935205 0 0 Z " fill="#000000" transform="translate(685.47265625,2621.921875)"/>
<path d="M0 0 C4.48503273 3.65060803 6.8482662 7.38277201 8 13 C8.40153275 19.75519799 6.19059731 24.79421573 2 30 C-1.9464357 33.84524504 -5.73885202 35.90134342 -11.32421875 36.0703125 C-17.58548476 35.74430478 -22.23553592 34.12626797 -27 30 C-30.72664604 25.22224867 -32.14636118 21.63126795 -32.1875 15.625 C-32.20167969 14.68914063 -32.21585937 13.75328125 -32.23046875 12.7890625 C-31.74658225 6.93321574 -29.33496128 3.83089601 -25 0 C-17.21988631 -5.31324838 -7.96906941 -5.18916148 0 0 Z " fill="#000000" transform="translate(431,15)"/>
<path d="M0 0 C5.06498987 2.67752768 8.36049163 6.7129049 11.1484375 11.625 C13.02910381 18.97669557 11.96683209 24.49773831 8.3359375 31.140625 C5.56965296 35.14597449 2.44383978 36.77653257 -2.1640625 38.3125 C-9.00579508 39.09761685 -14.33885575 38.5841806 -20.21875 34.875 C-24.36211993 31.54699202 -27.1454896 27.58870763 -28.1640625 22.3125 C-28.54858447 16.44854 -28.16740657 12.5441316 -25.1640625 7.3125 C-18.17971532 -0.02612566 -10.11739279 -3.21418977 0 0 Z " fill="#000000" transform="translate(3257.1640625,2669.6875)"/>
<path d="M0 0 C5.66469452 3.60395017 9.20750325 7.43891601 11.3515625 13.87109375 C12.13329128 20.36841328 11.21402998 25.52651666 7.3515625 30.87109375 C2.55728867 35.88328912 -1.24600827 38.00897467 -8.2734375 38.30859375 C-14.85608579 38.2528086 -18.87404309 36.33191565 -23.6484375 31.87109375 C-27.75690925 27.11211398 -29.02200225 22.44518217 -28.921875 16.27734375 C-28.15457862 9.5251356 -24.44070477 5.17568637 -19.33203125 1 C-13.98475123 -2.58553115 -5.75880549 -2.45471208 0 0 Z " fill="#000000" transform="translate(2867.6484375,2638.12890625)"/>
<path d="M0 0 C5.27888417 3.09191787 8.12216431 7.35851604 10.0859375 13.06640625 C11.27413349 18.66651029 10.42167198 23.65552546 7.8125 28.6875 C3.52457831 33.69007531 -0.97133642 36.89621282 -7.4375 38.3125 C-13.72392144 38.59382006 -18.38655752 36.97690925 -23.4375 33.3125 C-27.9648968 27.80620659 -29.74789107 22.33306939 -29.3125 15.25 C-28.51334593 9.18745192 -25.91791749 5.477878 -21.375 1.5 C-15.2787031 -3.03979556 -6.85767097 -3.19680903 0 0 Z " fill="#000000" transform="translate(1015.4375,2628.6875)"/>
<path d="M0 0 C3.85535589 3.00735244 6.19175675 6.75105149 7.72265625 11.34375 C8.41737986 18.39348631 8.20321374 24.5997795 3.72265625 30.34375 C-1.8913025 35.46010786 -6.90679909 36.71044076 -14.421875 36.62109375 C-20.21955637 36.05798106 -24.4064098 33.63219591 -28.21484375 29.28125 C-32.28240238 23.48806043 -32.09553404 17.19907251 -31.27734375 10.34375 C-29.30604558 5.28820673 -26.26517348 1.55752828 -21.58984375 -1.21875 C-14.52006864 -4.15209837 -6.63620787 -3.81547886 0 0 Z " fill="#000000" transform="translate(760.27734375,2623.65625)"/>
<path d="M0 0 C3.85535589 3.00735244 6.19175675 6.75105149 7.72265625 11.34375 C8.41737986 18.39348631 8.20321374 24.5997795 3.72265625 30.34375 C-1.8913025 35.46010786 -6.90679909 36.71044076 -14.421875 36.62109375 C-20.21955637 36.05798106 -24.4064098 33.63219591 -28.21484375 29.28125 C-32.28240238 23.48806043 -32.09553404 17.19907251 -31.27734375 10.34375 C-29.30604558 5.28820673 -26.26517348 1.55752828 -21.58984375 -1.21875 C-14.52006864 -4.15209837 -6.63620787 -3.81547886 0 0 Z " fill="#000000" transform="translate(760.27734375,7.65625)"/>
<path d="M0 0 C4.21359597 3.1336407 7.11624451 6.75263154 8.5546875 11.84375 C9.50544656 18.41814775 8.37590731 23.58215925 4.71875 29.10546875 C1.02281377 33.86574105 -2.55554564 36.29680043 -8.453125 37.2578125 C-14.83122567 37.76636538 -19.17983818 35.70257286 -24.390625 32.1953125 C-28.7965134 27.68929027 -31.31072448 23.26088913 -31.640625 16.8828125 C-31.35636457 11.38711088 -29.43875885 6.92625277 -25.75 2.84375 C-18.48507668 -3.69468099 -8.45940071 -4.83877721 0 0 Z " fill="#000000" transform="translate(1348.140625,2638.6171875)"/>
<path d="M0 0 C3.85535589 3.00735244 6.19175675 6.75105149 7.72265625 11.34375 C8.41737986 18.39348631 8.20321374 24.5997795 3.72265625 30.34375 C-1.88963208 35.4585855 -6.9072651 36.71645579 -14.421875 36.6171875 C-19.52747505 36.12827915 -23.37057583 34.43596418 -26.84375 30.625 C-31.55715573 24.286745 -32.27307896 18.13561974 -31.27734375 10.34375 C-29.273367 5.33011074 -26.25326235 1.54083998 -21.58984375 -1.21875 C-14.52006864 -4.15209837 -6.63620787 -3.81547886 0 0 Z " fill="#000000" transform="translate(2145.27734375,2623.65625)"/>
<path d="M0 0 C3.85535589 3.00735244 6.19175675 6.75105149 7.72265625 11.34375 C8.41737986 18.39348631 8.20321374 24.5997795 3.72265625 30.34375 C-1.88963208 35.4585855 -6.9072651 36.71645579 -14.421875 36.6171875 C-19.52747505 36.12827915 -23.37057583 34.43596418 -26.84375 30.625 C-31.55715573 24.286745 -32.27307896 18.13561974 -31.27734375 10.34375 C-29.273367 5.33011074 -26.25326235 1.54083998 -21.58984375 -1.21875 C-14.52006864 -4.15209837 -6.63620787 -3.81547886 0 0 Z " fill="#000000" transform="translate(2145.27734375,7.65625)"/>
</svg>
