<?xml version="1.0" encoding="UTF-8"?>
<svg version="1.1" xmlns="http://www.w3.org/2000/svg" width="550" height="205">
<path d="M0 0 C170.94 0 341.88 0 518 0 C518 0.99 518 1.98 518 3 C511.96365512 3.75425934 506.09606939 4.14396189 500.01697063 4.12584114 C499.15515571 4.12729458 498.29334079 4.12874802 497.40541026 4.13024551 C494.52787978 4.13388456 491.65040298 4.13042885 488.77287292 4.12698364 C486.68493174 4.12813628 484.59699075 4.12972476 482.50905019 4.13171089 C476.77930652 4.13588444 471.04957951 4.13382243 465.31983578 4.13072467 C459.13785446 4.12846284 452.95587601 4.13195404 446.77389526 4.13470459 C435.36735318 4.13889547 423.96081788 4.13853071 412.55427597 4.13579312 C402.01949856 4.13327716 391.4847231 4.13262106 380.94994545 4.13381577 C379.9015865 4.13393034 379.9015865 4.13393034 378.83204858 4.13404724 C375.99498699 4.13435857 373.15792541 4.13467697 370.32086382 4.135007 C343.71498521 4.13806512 317.10910997 4.13529363 290.50323188 4.1299101 C266.8577029 4.12516199 243.21217932 4.12559141 219.56665039 4.13037109 C193.00175386 4.13572295 166.43686032 4.13785084 139.87196332 4.13475883 C137.04163412 4.13443811 134.21130492 4.13412527 131.38097572 4.13381577 C130.68407293 4.13373669 129.98717013 4.13365761 129.26914906 4.13357614 C118.73668986 4.13243777 108.20423281 4.13377054 97.67177391 4.13629532 C85.70206113 4.13915032 73.7323547 4.13835213 61.76264217 4.13301457 C55.65185133 4.13037975 49.54107145 4.12936887 43.43028069 4.13266373 C37.84276245 4.13563099 32.25526538 4.13402662 26.66774908 4.12868617 C24.6403697 4.12756387 22.61298855 4.12814907 20.58561029 4.13056196 C17.84165556 4.13357864 15.09777447 4.13050814 12.35382366 4.12584114 C11.5567099 4.12818231 10.75959613 4.13052347 9.9383274 4.13293558 C6.45221581 4.12098919 3.3540256 3.93408755 0 3 C0 2.01 0 1.02 0 0 Z " fill="#000000" transform="translate(14,201)"/>
<path d="M0 0 C170.61 0 341.22 0 517 0 C517 0.66 517 1.32 517 2 C512.18007832 3.99850411 509.08994913 3.84832485 504 3 C503.34 3.165 502.68 3.33 502 3.5 C498.93790778 4.26552305 496.09830393 3.44261485 493 3 C492.34 3.165 491.68 3.33 491 3.5 C487.93790778 4.26552305 485.09830393 3.44261485 482 3 C481.34 3.165 480.68 3.33 480 3.5 C476.93790778 4.26552305 474.09830393 3.44261485 471 3 C470.34 3.165 469.68 3.33 469 3.5 C465.93790778 4.26552305 463.09830393 3.44261485 460 3 C459.34 3.165 458.68 3.33 458 3.5 C454.93790778 4.26552305 452.09830393 3.44261485 449 3 C448.34 3.165 447.68 3.33 447 3.5 C443.93790778 4.26552305 441.09830393 3.44261485 438 3 C437.34 3.165 436.68 3.33 436 3.5 C432.93790778 4.26552305 430.09830393 3.44261485 427 3 C426.34 3.165 425.68 3.33 425 3.5 C421.93790778 4.26552305 419.09830393 3.44261485 416 3 C415.34 3.165 414.68 3.33 414 3.5 C410.93790778 4.26552305 408.09830393 3.44261485 405 3 C404.34 3.165 403.68 3.33 403 3.5 C399.93790778 4.26552305 397.09830393 3.44261485 394 3 C393.34 3.165 392.68 3.33 392 3.5 C388.93790778 4.26552305 386.09830393 3.44261485 383 3 C382.34 3.165 381.68 3.33 381 3.5 C377.93790778 4.26552305 375.09830393 3.44261485 372 3 C371.34 3.165 370.68 3.33 370 3.5 C366.93790778 4.26552305 364.09830393 3.44261485 361 3 C360.34 3.165 359.68 3.33 359 3.5 C355.93790778 4.26552305 353.09830393 3.44261485 350 3 C349.34 3.165 348.68 3.33 348 3.5 C344.93790778 4.26552305 342.09830393 3.44261485 339 3 C338.34 3.165 337.68 3.33 337 3.5 C333.93790778 4.26552305 331.09830393 3.44261485 328 3 C327.34 3.165 326.68 3.33 326 3.5 C322.93790778 4.26552305 320.09830393 3.44261485 317 3 C315.66431979 3.32380126 314.33076989 3.65657551 313 4 C312.030625 3.835 311.06125 3.67 310.0625 3.5 C307.08776563 2.83010582 307.08776563 2.83010582 304.5 3.5 C301.43305032 4.11338994 299.06885925 3.51147654 296 3 C295.175 3.165 294.35 3.33 293.5 3.5 C290.43305032 4.11338994 288.06885925 3.51147654 285 3 C284.175 3.165 283.35 3.33 282.5 3.5 C279.43305032 4.11338994 277.06885925 3.51147654 274 3 C273.175 3.165 272.35 3.33 271.5 3.5 C268.43305032 4.11338994 266.06885925 3.51147654 263 3 C262.175 3.165 261.35 3.33 260.5 3.5 C257.43305032 4.11338994 255.06885925 3.51147654 252 3 C251.175 3.165 250.35 3.33 249.5 3.5 C246.43305032 4.11338994 244.06885925 3.51147654 241 3 C240.175 3.165 239.35 3.33 238.5 3.5 C235.43305032 4.11338994 233.06885925 3.51147654 230 3 C229.175 3.165 228.35 3.33 227.5 3.5 C224.43305032 4.11338994 222.06885925 3.51147654 219 3 C218.175 3.165 217.35 3.33 216.5 3.5 C213.43305032 4.11338994 211.06885925 3.51147654 208 3 C207.175 3.165 206.35 3.33 205.5 3.5 C202.43305032 4.11338994 200.06885925 3.51147654 197 3 C196.175 3.165 195.35 3.33 194.5 3.5 C191.43305032 4.11338994 189.06885925 3.51147654 186 3 C185.175 3.165 184.35 3.33 183.5 3.5 C180.43305032 4.11338994 178.06885925 3.51147654 175 3 C174.175 3.165 173.35 3.33 172.5 3.5 C169.43305032 4.11338994 167.06885925 3.51147654 164 3 C163.175 3.165 162.35 3.33 161.5 3.5 C158.43305032 4.11338994 156.06885925 3.51147654 153 3 C152.175 3.165 151.35 3.33 150.5 3.5 C147.43305032 4.11338994 145.06885925 3.51147654 142 3 C141.175 3.165 140.35 3.33 139.5 3.5 C136.43305032 4.11338994 134.06885925 3.51147654 131 3 C130.175 3.165 129.35 3.33 128.5 3.5 C125.43305032 4.11338994 123.06885925 3.51147654 120 3 C119.175 3.165 118.35 3.33 117.5 3.5 C114.43305032 4.11338994 112.06885925 3.51147654 109 3 C108.175 3.165 107.35 3.33 106.5 3.5 C103.43305032 4.11338994 101.06885925 3.51147654 98 3 C97.175 3.165 96.35 3.33 95.5 3.5 C92.43305032 4.11338994 90.06885925 3.51147654 87 3 C86.175 3.165 85.35 3.33 84.5 3.5 C81.43305032 4.11338994 79.06885925 3.51147654 76 3 C75.175 3.165 74.35 3.33 73.5 3.5 C70.43305032 4.11338994 68.06885925 3.51147654 65 3 C64.175 3.165 63.35 3.33 62.5 3.5 C59.43305032 4.11338994 57.06885925 3.51147654 54 3 C53.175 3.165 52.35 3.33 51.5 3.5 C48.43305032 4.11338994 46.06885925 3.51147654 43 3 C42.175 3.165 41.35 3.33 40.5 3.5 C37.43305032 4.11338994 35.06885925 3.51147654 32 3 C31.175 3.165 30.35 3.33 29.5 3.5 C26.43305032 4.11338994 24.06885925 3.51147654 21 3 C20.175 3.165 19.35 3.33 18.5 3.5 C15.43305032 4.11338994 13.06885925 3.51147654 10 3 C9.154375 3.185625 8.30875 3.37125 7.4375 3.5625 C4.37757037 4.11171814 2.7518652 3.33662024 0 2 C0 1.34 0 0.68 0 0 Z " fill="#000000" transform="translate(18,0)"/>
<path d="M0 0 C1.98 0 3.96 0 6 0 C6 0.33 6 0.66 6 1 C4.02 1 2.04 1 0 1 C0 0.67 0 0.34 0 0 Z " fill="#000000" transform="translate(237,200)"/>
<path d="M0 0 C1.98 0 3.96 0 6 0 C6 0.33 6 0.66 6 1 C4.02 1 2.04 1 0 1 C0 0.67 0 0.34 0 0 Z " fill="#000000" transform="translate(226,200)"/>
<path d="M0 0 C1.98 0 3.96 0 6 0 C6 0.33 6 0.66 6 1 C4.02 1 2.04 1 0 1 C0 0.67 0 0.34 0 0 Z " fill="#000000" transform="translate(215,200)"/>
<path d="M0 0 C1.98 0 3.96 0 6 0 C6 0.33 6 0.66 6 1 C4.02 1 2.04 1 0 1 C0 0.67 0 0.34 0 0 Z " fill="#000000" transform="translate(204,200)"/>
<path d="M0 0 C3 1 3 1 3 1 Z " fill="#000000" transform="translate(526,200)"/>
<path d="M0 0 C3 1 3 1 3 1 Z " fill="#000000" transform="translate(522,200)"/>
<path d="M0 0 C3 1 3 1 3 1 Z " fill="#000000" transform="translate(515,200)"/>
<path d="M0 0 C3 1 3 1 3 1 Z " fill="#000000" transform="translate(511,200)"/>
<path d="M0 0 C3 1 3 1 3 1 Z " fill="#000000" transform="translate(504,200)"/>
<path d="M0 0 C3 1 3 1 3 1 Z " fill="#000000" transform="translate(500,200)"/>
<path d="M0 0 C3 1 3 1 3 1 Z " fill="#000000" transform="translate(493,200)"/>
<path d="M0 0 C3 1 3 1 3 1 Z " fill="#000000" transform="translate(489,200)"/>
<path d="M0 0 C3 1 3 1 3 1 Z " fill="#000000" transform="translate(482,200)"/>
<path d="M0 0 C3 1 3 1 3 1 Z " fill="#000000" transform="translate(478,200)"/>
<path d="M0 0 C3 1 3 1 3 1 Z " fill="#000000" transform="translate(471,200)"/>
<path d="M0 0 C3 1 3 1 3 1 Z " fill="#000000" transform="translate(460,200)"/>
<path d="M0 0 C3 1 3 1 3 1 Z " fill="#000000" transform="translate(449,200)"/>
<path d="M0 0 C3 1 3 1 3 1 Z " fill="#000000" transform="translate(438,200)"/>
<path d="M0 0 C3 1 3 1 3 1 Z " fill="#000000" transform="translate(427,200)"/>
<path d="M0 0 C3 1 3 1 3 1 Z " fill="#000000" transform="translate(416,200)"/>
<path d="M0 0 C3 1 3 1 3 1 Z " fill="#000000" transform="translate(405,200)"/>
<path d="M0 0 C3 1 3 1 3 1 Z " fill="#000000" transform="translate(394,200)"/>
<path d="M0 0 C3 1 3 1 3 1 Z " fill="#000000" transform="translate(383,200)"/>
<path d="M0 0 C3 1 3 1 3 1 Z " fill="#000000" transform="translate(372,200)"/>
<path d="M0 0 C3 1 3 1 3 1 Z " fill="#000000" transform="translate(361,200)"/>
<path d="M0 0 C3 1 3 1 3 1 Z " fill="#000000" transform="translate(350,200)"/>
<path d="M0 0 C3 1 3 1 3 1 Z " fill="#000000" transform="translate(339,200)"/>
<path d="M0 0 C3 1 3 1 3 1 Z " fill="#000000" transform="translate(328,200)"/>
<path d="M0 0 C3 1 3 1 3 1 Z " fill="#000000" transform="translate(317,200)"/>
<path d="M0 0 C3 1 3 1 3 1 Z " fill="#000000" transform="translate(306,200)"/>
<path d="M0 0 C3 1 3 1 3 1 Z " fill="#000000" transform="translate(295,200)"/>
<path d="M0 0 C3 1 3 1 3 1 Z " fill="#000000" transform="translate(284,200)"/>
<path d="M0 0 C3 1 3 1 3 1 Z " fill="#000000" transform="translate(273,200)"/>
<path d="M0 0 C3 1 3 1 3 1 Z " fill="#000000" transform="translate(262,200)"/>
<path d="M0 0 C3 1 3 1 3 1 Z " fill="#000000" transform="translate(251,200)"/>
<path d="M0 0 C3 1 3 1 3 1 Z " fill="#000000" transform="translate(193,200)"/>
<path d="M0 0 C3 1 3 1 3 1 Z " fill="#000000" transform="translate(182,200)"/>
<path d="M0 0 C3 1 3 1 3 1 Z " fill="#000000" transform="translate(171,200)"/>
<path d="M0 0 C3 1 3 1 3 1 Z " fill="#000000" transform="translate(160,200)"/>
<path d="M0 0 C3 1 3 1 3 1 Z " fill="#000000" transform="translate(149,200)"/>
<path d="M0 0 C3 1 3 1 3 1 Z " fill="#000000" transform="translate(138,200)"/>
<path d="M0 0 C3 1 3 1 3 1 Z " fill="#000000" transform="translate(127,200)"/>
<path d="M0 0 C3 1 3 1 3 1 Z " fill="#000000" transform="translate(116,200)"/>
<path d="M0 0 C3 1 3 1 3 1 Z " fill="#000000" transform="translate(105,200)"/>
<path d="M0 0 C3 1 3 1 3 1 Z " fill="#000000" transform="translate(94,200)"/>
<path d="M0 0 C3 1 3 1 3 1 Z " fill="#000000" transform="translate(83,200)"/>
<path d="M0 0 C3 1 3 1 3 1 Z " fill="#000000" transform="translate(72,200)"/>
<path d="M0 0 C3 1 3 1 3 1 Z " fill="#000000" transform="translate(61,200)"/>
<path d="M0 0 C3 1 3 1 3 1 Z " fill="#000000" transform="translate(50,200)"/>
<path d="M0 0 C3 1 3 1 3 1 Z " fill="#000000" transform="translate(39,200)"/>
<path d="M0 0 C3 1 3 1 3 1 Z " fill="#000000" transform="translate(32,200)"/>
<path d="M0 0 C3 1 3 1 3 1 Z " fill="#000000" transform="translate(28,200)"/>
<path d="M0 0 C3 1 3 1 3 1 Z " fill="#000000" transform="translate(21,200)"/>
<path d="M0 0 C3 1 3 1 3 1 Z " fill="#000000" transform="translate(17,200)"/>
<path d="M0 0 C3 1 3 1 3 1 Z " fill="#000000" transform="translate(475,199)"/>
<path d="M0 0 C3 1 3 1 3 1 Z " fill="#000000" transform="translate(464,199)"/>
<path d="M0 0 C3 1 3 1 3 1 Z " fill="#000000" transform="translate(453,199)"/>
<path d="M0 0 C3 1 3 1 3 1 Z " fill="#000000" transform="translate(442,199)"/>
<path d="M0 0 C3 1 3 1 3 1 Z " fill="#000000" transform="translate(431,199)"/>
<path d="M0 0 C3 1 3 1 3 1 Z " fill="#000000" transform="translate(420,199)"/>
<path d="M0 0 C3 1 3 1 3 1 Z " fill="#000000" transform="translate(409,199)"/>
<path d="M0 0 C3 1 3 1 3 1 Z " fill="#000000" transform="translate(398,199)"/>
<path d="M0 0 C3 1 3 1 3 1 Z " fill="#000000" transform="translate(387,199)"/>
<path d="M0 0 C3 1 3 1 3 1 Z " fill="#000000" transform="translate(376,199)"/>
<path d="M0 0 C3 1 3 1 3 1 Z " fill="#000000" transform="translate(365,199)"/>
<path d="M0 0 C3 1 3 1 3 1 Z " fill="#000000" transform="translate(354,199)"/>
<path d="M0 0 C3 1 3 1 3 1 Z " fill="#000000" transform="translate(343,199)"/>
<path d="M0 0 C3 1 3 1 3 1 Z " fill="#000000" transform="translate(332,199)"/>
<path d="M0 0 C3 1 3 1 3 1 Z " fill="#000000" transform="translate(321,199)"/>
<path d="M0 0 C3 1 3 1 3 1 Z " fill="#000000" transform="translate(310,199)"/>
<path d="M0 0 C3 1 3 1 3 1 Z " fill="#000000" transform="translate(299,199)"/>
<path d="M0 0 C3 1 3 1 3 1 Z " fill="#000000" transform="translate(288,199)"/>
<path d="M0 0 C3 1 3 1 3 1 Z " fill="#000000" transform="translate(277,199)"/>
<path d="M0 0 C3 1 3 1 3 1 Z " fill="#000000" transform="translate(266,199)"/>
<path d="M0 0 C3 1 3 1 3 1 Z " fill="#000000" transform="translate(255,199)"/>
<path d="M0 0 C3 1 3 1 3 1 Z " fill="#000000" transform="translate(244,199)"/>
<path d="M0 0 C3 1 3 1 3 1 Z " fill="#000000" transform="translate(233,199)"/>
<path d="M0 0 C3 1 3 1 3 1 Z " fill="#000000" transform="translate(222,199)"/>
<path d="M0 0 C3 1 3 1 3 1 Z " fill="#000000" transform="translate(211,199)"/>
<path d="M0 0 C3 1 3 1 3 1 Z " fill="#000000" transform="translate(200,199)"/>
<path d="M0 0 C3 1 3 1 3 1 Z " fill="#000000" transform="translate(189,199)"/>
<path d="M0 0 C3 1 3 1 3 1 Z " fill="#000000" transform="translate(178,199)"/>
<path d="M0 0 C3 1 3 1 3 1 Z " fill="#000000" transform="translate(167,199)"/>
<path d="M0 0 C3 1 3 1 3 1 Z " fill="#000000" transform="translate(156,199)"/>
<path d="M0 0 C3 1 3 1 3 1 Z " fill="#000000" transform="translate(145,199)"/>
<path d="M0 0 C3 1 3 1 3 1 Z " fill="#000000" transform="translate(134,199)"/>
<path d="M0 0 C3 1 3 1 3 1 Z " fill="#000000" transform="translate(123,199)"/>
<path d="M0 0 C3 1 3 1 3 1 Z " fill="#000000" transform="translate(112,199)"/>
<path d="M0 0 C3 1 3 1 3 1 Z " fill="#000000" transform="translate(101,199)"/>
<path d="M0 0 C3 1 3 1 3 1 Z " fill="#000000" transform="translate(90,199)"/>
<path d="M0 0 C3 1 3 1 3 1 Z " fill="#000000" transform="translate(79,199)"/>
<path d="M0 0 C3 1 3 1 3 1 Z " fill="#000000" transform="translate(68,199)"/>
<path d="M0 0 C3 1 3 1 3 1 Z " fill="#000000" transform="translate(57,199)"/>
<path d="M0 0 C3 1 3 1 3 1 Z " fill="#000000" transform="translate(46,199)"/>
<path d="M0 0 C3 1 3 1 3 1 Z " fill="#000000" transform="translate(35,199)"/>
<path d="M0 0 C3 1 3 1 3 1 Z " fill="#000000" transform="translate(530,4)"/>
<path d="M0 0 C3 1 3 1 3 1 Z " fill="#000000" transform="translate(525,4)"/>
<path d="M0 0 C3 1 3 1 3 1 Z " fill="#000000" transform="translate(519,4)"/>
<path d="M0 0 C3 1 3 1 3 1 Z " fill="#000000" transform="translate(514,4)"/>
<path d="M0 0 C3 1 3 1 3 1 Z " fill="#000000" transform="translate(508,4)"/>
<path d="M0 0 C3 1 3 1 3 1 Z " fill="#000000" transform="translate(503,4)"/>
<path d="M0 0 C3 1 3 1 3 1 Z " fill="#000000" transform="translate(497,4)"/>
<path d="M0 0 C3 1 3 1 3 1 Z " fill="#000000" transform="translate(492,4)"/>
<path d="M0 0 C3 1 3 1 3 1 Z " fill="#000000" transform="translate(486,4)"/>
<path d="M0 0 C3 1 3 1 3 1 Z " fill="#000000" transform="translate(481,4)"/>
<path d="M0 0 C3 1 3 1 3 1 Z " fill="#000000" transform="translate(475,4)"/>
<path d="M0 0 C3 1 3 1 3 1 Z " fill="#000000" transform="translate(470,4)"/>
<path d="M0 0 C3 1 3 1 3 1 Z " fill="#000000" transform="translate(464,4)"/>
<path d="M0 0 C3 1 3 1 3 1 Z " fill="#000000" transform="translate(459,4)"/>
<path d="M0 0 C3 1 3 1 3 1 Z " fill="#000000" transform="translate(453,4)"/>
<path d="M0 0 C3 1 3 1 3 1 Z " fill="#000000" transform="translate(448,4)"/>
<path d="M0 0 C3 1 3 1 3 1 Z " fill="#000000" transform="translate(442,4)"/>
<path d="M0 0 C3 1 3 1 3 1 Z " fill="#000000" transform="translate(431,4)"/>
<path d="M0 0 C3 1 3 1 3 1 Z " fill="#000000" transform="translate(420,4)"/>
<path d="M0 0 C3 1 3 1 3 1 Z " fill="#000000" transform="translate(409,4)"/>
<path d="M0 0 C3 1 3 1 3 1 Z " fill="#000000" transform="translate(398,4)"/>
<path d="M0 0 C3 1 3 1 3 1 Z " fill="#000000" transform="translate(387,4)"/>
<path d="M0 0 C3 1 3 1 3 1 Z " fill="#000000" transform="translate(382,4)"/>
<path d="M0 0 C3 1 3 1 3 1 Z " fill="#000000" transform="translate(376,4)"/>
<path d="M0 0 C3 1 3 1 3 1 Z " fill="#000000" transform="translate(365,4)"/>
<path d="M0 0 C3 1 3 1 3 1 Z " fill="#000000" transform="translate(354,4)"/>
<path d="M0 0 C3 1 3 1 3 1 Z " fill="#000000" transform="translate(343,4)"/>
<path d="M0 0 C3 1 3 1 3 1 Z " fill="#000000" transform="translate(332,4)"/>
<path d="M0 0 C3 1 3 1 3 1 Z " fill="#000000" transform="translate(321,4)"/>
<path d="M0 0 C3 1 3 1 3 1 Z " fill="#000000" transform="translate(310,4)"/>
<path d="M0 0 C3 1 3 1 3 1 Z " fill="#000000" transform="translate(299,4)"/>
<path d="M0 0 C3 1 3 1 3 1 Z " fill="#000000" transform="translate(288,4)"/>
<path d="M0 0 C3 1 3 1 3 1 Z " fill="#000000" transform="translate(277,4)"/>
<path d="M0 0 C3 1 3 1 3 1 Z " fill="#000000" transform="translate(266,4)"/>
<path d="M0 0 C3 1 3 1 3 1 Z " fill="#000000" transform="translate(229,4)"/>
<path d="M0 0 C3 1 3 1 3 1 Z " fill="#000000" transform="translate(218,4)"/>
<path d="M0 0 C3 1 3 1 3 1 Z " fill="#000000" transform="translate(207,4)"/>
<path d="M0 0 C3 1 3 1 3 1 Z " fill="#000000" transform="translate(196,4)"/>
<path d="M0 0 C3 1 3 1 3 1 Z " fill="#000000" transform="translate(185,4)"/>
<path d="M0 0 C3 1 3 1 3 1 Z " fill="#000000" transform="translate(174,4)"/>
<path d="M0 0 C3 1 3 1 3 1 Z " fill="#000000" transform="translate(163,4)"/>
<path d="M0 0 C3 1 3 1 3 1 Z " fill="#000000" transform="translate(152,4)"/>
<path d="M0 0 C3 1 3 1 3 1 Z " fill="#000000" transform="translate(141,4)"/>
<path d="M0 0 C3 1 3 1 3 1 Z " fill="#000000" transform="translate(130,4)"/>
<path d="M0 0 C3 1 3 1 3 1 Z " fill="#000000" transform="translate(124,4)"/>
<path d="M0 0 C3 1 3 1 3 1 Z " fill="#000000" transform="translate(119,4)"/>
<path d="M0 0 C3 1 3 1 3 1 Z " fill="#000000" transform="translate(108,4)"/>
<path d="M0 0 C3 1 3 1 3 1 Z " fill="#000000" transform="translate(97,4)"/>
<path d="M0 0 C3 1 3 1 3 1 Z " fill="#000000" transform="translate(86,4)"/>
<path d="M0 0 C3 1 3 1 3 1 Z " fill="#000000" transform="translate(80,4)"/>
<path d="M0 0 C3 1 3 1 3 1 Z " fill="#000000" transform="translate(75,4)"/>
<path d="M0 0 C3 1 3 1 3 1 Z " fill="#000000" transform="translate(69,4)"/>
<path d="M0 0 C3 1 3 1 3 1 Z " fill="#000000" transform="translate(64,4)"/>
<path d="M0 0 C3 1 3 1 3 1 Z " fill="#000000" transform="translate(58,4)"/>
<path d="M0 0 C3 1 3 1 3 1 Z " fill="#000000" transform="translate(53,4)"/>
<path d="M0 0 C3 1 3 1 3 1 Z " fill="#000000" transform="translate(47,4)"/>
<path d="M0 0 C3 1 3 1 3 1 Z " fill="#000000" transform="translate(42,4)"/>
<path d="M0 0 C3 1 3 1 3 1 Z " fill="#000000" transform="translate(36,4)"/>
<path d="M0 0 C3 1 3 1 3 1 Z " fill="#000000" transform="translate(31,4)"/>
<path d="M0 0 C3 1 3 1 3 1 Z " fill="#000000" transform="translate(25,4)"/>
<path d="M0 0 C3 1 3 1 3 1 Z " fill="#000000" transform="translate(20,4)"/>
<path d="M0 0 C2 1 2 1 2 1 Z " fill="#000000" transform="translate(468,200)"/>
<path d="M0 0 C2 1 2 1 2 1 Z " fill="#000000" transform="translate(457,200)"/>
<path d="M0 0 C2 1 2 1 2 1 Z " fill="#000000" transform="translate(446,200)"/>
<path d="M0 0 C2 1 2 1 2 1 Z " fill="#000000" transform="translate(435,200)"/>
<path d="M0 0 C2 1 2 1 2 1 Z " fill="#000000" transform="translate(424,200)"/>
<path d="M0 0 C2 1 2 1 2 1 Z " fill="#000000" transform="translate(413,200)"/>
<path d="M0 0 C2 1 2 1 2 1 Z " fill="#000000" transform="translate(402,200)"/>
<path d="M0 0 C2 1 2 1 2 1 Z " fill="#000000" transform="translate(391,200)"/>
<path d="M0 0 C2 1 2 1 2 1 Z " fill="#000000" transform="translate(380,200)"/>
<path d="M0 0 C2 1 2 1 2 1 Z " fill="#000000" transform="translate(369,200)"/>
<path d="M0 0 C2 1 2 1 2 1 Z " fill="#000000" transform="translate(358,200)"/>
<path d="M0 0 C2 1 2 1 2 1 Z " fill="#000000" transform="translate(347,200)"/>
<path d="M0 0 C2 1 2 1 2 1 Z " fill="#000000" transform="translate(336,200)"/>
<path d="M0 0 C2 1 2 1 2 1 Z " fill="#000000" transform="translate(325,200)"/>
<path d="M0 0 C2 1 2 1 2 1 Z " fill="#000000" transform="translate(314,200)"/>
<path d="M0 0 C2 1 2 1 2 1 Z " fill="#000000" transform="translate(303,200)"/>
<path d="M0 0 C2 1 2 1 2 1 Z " fill="#000000" transform="translate(292,200)"/>
<path d="M0 0 C2 1 2 1 2 1 Z " fill="#000000" transform="translate(281,200)"/>
<path d="M0 0 C2 1 2 1 2 1 Z " fill="#000000" transform="translate(270,200)"/>
<path d="M0 0 C2 1 2 1 2 1 Z " fill="#000000" transform="translate(259,200)"/>
<path d="M0 0 C2 1 2 1 2 1 Z " fill="#000000" transform="translate(248,200)"/>
<path d="M0 0 C2 1 2 1 2 1 Z " fill="#000000" transform="translate(197,200)"/>
<path d="M0 0 C2 1 2 1 2 1 Z " fill="#000000" transform="translate(186,200)"/>
<path d="M0 0 C2 1 2 1 2 1 Z " fill="#000000" transform="translate(175,200)"/>
<path d="M0 0 C2 1 2 1 2 1 Z " fill="#000000" transform="translate(164,200)"/>
<path d="M0 0 C2 1 2 1 2 1 Z " fill="#000000" transform="translate(153,200)"/>
<path d="M0 0 C2 1 2 1 2 1 Z " fill="#000000" transform="translate(142,200)"/>
<path d="M0 0 C2 1 2 1 2 1 Z " fill="#000000" transform="translate(131,200)"/>
<path d="M0 0 C2 1 2 1 2 1 Z " fill="#000000" transform="translate(120,200)"/>
<path d="M0 0 C2 1 2 1 2 1 Z " fill="#000000" transform="translate(109,200)"/>
<path d="M0 0 C2 1 2 1 2 1 Z " fill="#000000" transform="translate(98,200)"/>
<path d="M0 0 C2 1 2 1 2 1 Z " fill="#000000" transform="translate(87,200)"/>
<path d="M0 0 C2 1 2 1 2 1 Z " fill="#000000" transform="translate(76,200)"/>
<path d="M0 0 C2 1 2 1 2 1 Z " fill="#000000" transform="translate(65,200)"/>
<path d="M0 0 C2 1 2 1 2 1 Z " fill="#000000" transform="translate(54,200)"/>
<path d="M0 0 C2 1 2 1 2 1 Z " fill="#000000" transform="translate(43,200)"/>
<path d="M0 0 C2 1 2 1 2 1 Z " fill="#000000" transform="translate(519,199)"/>
<path d="M0 0 C2 1 2 1 2 1 Z " fill="#000000" transform="translate(508,199)"/>
<path d="M0 0 C2 1 2 1 2 1 Z " fill="#000000" transform="translate(497,199)"/>
<path d="M0 0 C2 1 2 1 2 1 Z " fill="#000000" transform="translate(486,199)"/>
<path d="M0 0 C2 1 2 1 2 1 Z " fill="#000000" transform="translate(25,199)"/>
<path d="M0 0 C2 1 2 1 2 1 Z " fill="#000000" transform="translate(438,4)"/>
<path d="M0 0 C2 1 2 1 2 1 Z " fill="#000000" transform="translate(427,4)"/>
<path d="M0 0 C2 1 2 1 2 1 Z " fill="#000000" transform="translate(416,4)"/>
<path d="M0 0 C2 1 2 1 2 1 Z " fill="#000000" transform="translate(405,4)"/>
<path d="M0 0 C2 1 2 1 2 1 Z " fill="#000000" transform="translate(394,4)"/>
<path d="M0 0 C2 1 2 1 2 1 Z " fill="#000000" transform="translate(372,4)"/>
<path d="M0 0 C2 1 2 1 2 1 Z " fill="#000000" transform="translate(361,4)"/>
<path d="M0 0 C2 1 2 1 2 1 Z " fill="#000000" transform="translate(350,4)"/>
<path d="M0 0 C2 1 2 1 2 1 Z " fill="#000000" transform="translate(339,4)"/>
<path d="M0 0 C2 1 2 1 2 1 Z " fill="#000000" transform="translate(328,4)"/>
<path d="M0 0 C2 1 2 1 2 1 Z " fill="#000000" transform="translate(317,4)"/>
<path d="M0 0 C2 1 2 1 2 1 Z " fill="#000000" transform="translate(306,4)"/>
<path d="M0 0 C2 1 2 1 2 1 Z " fill="#000000" transform="translate(295,4)"/>
<path d="M0 0 C2 1 2 1 2 1 Z " fill="#000000" transform="translate(284,4)"/>
<path d="M0 0 C2 1 2 1 2 1 Z " fill="#000000" transform="translate(273,4)"/>
<path d="M0 0 C2 1 2 1 2 1 Z " fill="#000000" transform="translate(262,4)"/>
<path d="M0 0 C2 1 2 1 2 1 Z " fill="#000000" transform="translate(256,4)"/>
<path d="M0 0 C2 1 2 1 2 1 Z " fill="#000000" transform="translate(251,4)"/>
<path d="M0 0 C2 1 2 1 2 1 Z " fill="#000000" transform="translate(245,4)"/>
<path d="M0 0 C2 1 2 1 2 1 Z " fill="#000000" transform="translate(240,4)"/>
<path d="M0 0 C2 1 2 1 2 1 Z " fill="#000000" transform="translate(234,4)"/>
<path d="M0 0 C2 1 2 1 2 1 Z " fill="#000000" transform="translate(223,4)"/>
<path d="M0 0 C2 1 2 1 2 1 Z " fill="#000000" transform="translate(212,4)"/>
<path d="M0 0 C2 1 2 1 2 1 Z " fill="#000000" transform="translate(201,4)"/>
<path d="M0 0 C2 1 2 1 2 1 Z " fill="#000000" transform="translate(190,4)"/>
<path d="M0 0 C2 1 2 1 2 1 Z " fill="#000000" transform="translate(179,4)"/>
<path d="M0 0 C2 1 2 1 2 1 Z " fill="#000000" transform="translate(168,4)"/>
<path d="M0 0 C2 1 2 1 2 1 Z " fill="#000000" transform="translate(157,4)"/>
<path d="M0 0 C2 1 2 1 2 1 Z " fill="#000000" transform="translate(146,4)"/>
<path d="M0 0 C2 1 2 1 2 1 Z " fill="#000000" transform="translate(135,4)"/>
<path d="M0 0 C2 1 2 1 2 1 Z " fill="#000000" transform="translate(113,4)"/>
<path d="M0 0 C2 1 2 1 2 1 Z " fill="#000000" transform="translate(102,4)"/>
<path d="M0 0 C2 1 2 1 2 1 Z " fill="#000000" transform="translate(91,4)"/>
<path d="M0 0 C2 1 2 1 2 1 Z " fill="#000000" transform="translate(512,3)"/>
<path d="M0 0 C2 1 2 1 2 1 Z " fill="#000000" transform="translate(501,3)"/>
<path d="M0 0 C2 1 2 1 2 1 Z " fill="#000000" transform="translate(490,3)"/>
<path d="M0 0 C2 1 2 1 2 1 Z " fill="#000000" transform="translate(479,3)"/>
<path d="M0 0 C2 1 2 1 2 1 Z " fill="#000000" transform="translate(468,3)"/>
<path d="M0 0 C2 1 2 1 2 1 Z " fill="#000000" transform="translate(457,3)"/>
<path d="M0 0 C2 1 2 1 2 1 Z " fill="#000000" transform="translate(446,3)"/>
<path d="M0 0 C2 1 2 1 2 1 Z " fill="#000000" transform="translate(435,3)"/>
<path d="M0 0 C2 1 2 1 2 1 Z " fill="#000000" transform="translate(424,3)"/>
<path d="M0 0 C2 1 2 1 2 1 Z " fill="#000000" transform="translate(413,3)"/>
<path d="M0 0 C2 1 2 1 2 1 Z " fill="#000000" transform="translate(402,3)"/>
<path d="M0 0 C2 1 2 1 2 1 Z " fill="#000000" transform="translate(391,3)"/>
<path d="M0 0 C2 1 2 1 2 1 Z " fill="#000000" transform="translate(380,3)"/>
<path d="M0 0 C2 1 2 1 2 1 Z " fill="#000000" transform="translate(369,3)"/>
<path d="M0 0 C2 1 2 1 2 1 Z " fill="#000000" transform="translate(358,3)"/>
<path d="M0 0 C2 1 2 1 2 1 Z " fill="#000000" transform="translate(347,3)"/>
<path d="M0 0 C2 1 2 1 2 1 Z " fill="#000000" transform="translate(336,3)"/>
<path d="M0 0 C2 1 2 1 2 1 Z " fill="#000000" transform="translate(325,3)"/>
<path d="M0 0 C2 1 2 1 2 1 Z " fill="#000000" transform="translate(314,3)"/>
<path d="M0 0 C2 1 2 1 2 1 Z " fill="#000000" transform="translate(303,3)"/>
<path d="M0 0 C2 1 2 1 2 1 Z " fill="#000000" transform="translate(292,3)"/>
<path d="M0 0 C2 1 2 1 2 1 Z " fill="#000000" transform="translate(281,3)"/>
<path d="M0 0 C2 1 2 1 2 1 Z " fill="#000000" transform="translate(270,3)"/>
<path d="M0 0 C2 1 2 1 2 1 Z " fill="#000000" transform="translate(259,3)"/>
<path d="M0 0 C2 1 2 1 2 1 Z " fill="#000000" transform="translate(248,3)"/>
<path d="M0 0 C2 1 2 1 2 1 Z " fill="#000000" transform="translate(237,3)"/>
<path d="M0 0 C2 1 2 1 2 1 Z " fill="#000000" transform="translate(226,3)"/>
<path d="M0 0 C2 1 2 1 2 1 Z " fill="#000000" transform="translate(215,3)"/>
<path d="M0 0 C2 1 2 1 2 1 Z " fill="#000000" transform="translate(204,3)"/>
<path d="M0 0 C2 1 2 1 2 1 Z " fill="#000000" transform="translate(193,3)"/>
<path d="M0 0 C2 1 2 1 2 1 Z " fill="#000000" transform="translate(182,3)"/>
<path d="M0 0 C2 1 2 1 2 1 Z " fill="#000000" transform="translate(171,3)"/>
<path d="M0 0 C2 1 2 1 2 1 Z " fill="#000000" transform="translate(160,3)"/>
<path d="M0 0 C2 1 2 1 2 1 Z " fill="#000000" transform="translate(149,3)"/>
<path d="M0 0 C2 1 2 1 2 1 Z " fill="#000000" transform="translate(138,3)"/>
<path d="M0 0 C2 1 2 1 2 1 Z " fill="#000000" transform="translate(127,3)"/>
<path d="M0 0 C2 1 2 1 2 1 Z " fill="#000000" transform="translate(116,3)"/>
<path d="M0 0 C2 1 2 1 2 1 Z " fill="#000000" transform="translate(105,3)"/>
<path d="M0 0 C2 1 2 1 2 1 Z " fill="#000000" transform="translate(94,3)"/>
<path d="M0 0 C2 1 2 1 2 1 Z " fill="#000000" transform="translate(83,3)"/>
<path d="M0 0 C2 1 2 1 2 1 Z " fill="#000000" transform="translate(72,3)"/>
<path d="M0 0 C2 1 2 1 2 1 Z " fill="#000000" transform="translate(61,3)"/>
<path d="M0 0 C2 1 2 1 2 1 Z " fill="#000000" transform="translate(50,3)"/>
<path d="" fill="#000000" transform="translate(0,0)"/>
<path d="" fill="#000000" transform="translate(0,0)"/>
<path d="" fill="#000000" transform="translate(0,0)"/>
<path d="" fill="#000000" transform="translate(0,0)"/>
<path d="" fill="#000000" transform="translate(0,0)"/>
<path d="" fill="#000000" transform="translate(0,0)"/>
<path d="" fill="#000000" transform="translate(0,0)"/>
<path d="" fill="#000000" transform="translate(0,0)"/>
<path d="" fill="#000000" transform="translate(0,0)"/>
<path d="" fill="#000000" transform="translate(0,0)"/>
<path d="" fill="#000000" transform="translate(0,0)"/>
</svg>
